/* XPM */
static char *_c6dda5d073f440d9ac734061859ede7EoUtNaYxVYLjfQK2[] = {
/* columns rows colors chars-per-pixel */
"64 64 42 1 ",
"  c None",
". c #000010",
"X c #00001C",
"o c gray11",
"O c #00002C",
"+ c #000034",
"@ c #400000",
"# c #4C0000",
"$ c #640000",
"% c #700000",
"& c #7C0000",
"* c #483818",
"= c #543C1C",
"- c #5C4020",
"; c #744C28",
": c #000040",
"> c #00004C",
", c #000058",
"< c #000064",
"1 c #000070",
"2 c #00007C",
"3 c #980000",
"4 c #A40000",
"5 c #B00000",
"6 c #BC0000",
"7 c #E00000",
"8 c #EC0000",
"9 c #80502C",
"0 c #9C6038",
"q c #A0643C",
"w c #A86840",
"e c #B47044",
"r c #BC7848",
"t c #DC8854",
"y c #E88C58",
"u c #FC9C60",
"i c #000088",
"p c #000098",
"a c #0000A4",
"s c #0000B0",
"d c #0000BC",
"f c #FCB080",
/* pixels */
"                                                                ",
"                                                                ",
"                                                                ",
"                                                                ",
"                                                                ",
"                                                                ",
"                                                                ",
"                                                                ",
"                                                                ",
"                                                                ",
"                                                                ",
"                                                                ",
"                                                                ",
"                                                                ",
"                                                                ",
"                                                                ",
"                                                                ",
"                                                                ",
"                                                                ",
"                                                                ",
"                                                                ",
"                                                                ",
"                                                                ",
"                                                                ",
"                                                                ",
"                                                                ",
"                                                                ",
"                                                                ",
"                                                                ",
"                                                                ",
"                                                                ",
"                                                                ",
"                                                                ",
"                                                                ",
"                                                                ",
"                                                                ",
"                             7                                  ",
"                                       8                        ",
"                            637  3       6                      ",
"                            6$           &                      ",
"                             3$     6  8$  5                    ",
"                            6$   7      6$        tt            ",
"                   wyy      6 74 i7i6  6$#      t00tt           ",
"                  uyuw-      347ii:i6i #3 5   ptp000t           ",
"                 0uuu--     33#i9efre9i35#  pppp,;;00           ",
"                 0tuw==p ppp #77&7:ppp#####22p1::*;;            ",
"                  tq===:1pppp@7&@7.&&>@&ddddiii:XX              ",
"                   +X+::11>1@&@@&@&@,@&dddddddai                ",
"                    +X++::>>&idddi@&1&pddppdddddi     ::        ",
"                     +XXXX+idddddd1@2&pd1122ds2++   :::oo       ",
"                         +dddddddda<2p11:::222:::+ :::ooo       ",
"                        idaappdddpp<:,:::OO,2::::+,::oooo       ",
"                       iaaaaa,1pp,>:OOOOOXO::.OXX:::oooo        ",
"                       >>>>i11::::+OOXXXXXXO:.OXX::Ooooo        ",
"                 :::: X+::+X:1+++OXXXXXXX    ....XOoooo         ",
"                ,ooo::X::+XX::OXXX%%# %#       ..X.ooo          ",
"                ooooo::X++X.:OX  # $# %         ...ooo          ",
"                ooooo::OXXX..X  &  $  %          ..oo           ",
"                 .oooo++XX..       $  %                         ",
"                  oooooXX.         &  &                         ",
"                  ooooo.X.     &   &                            ",
"                   .ooo..             4                         ",
"                    oooo                                        ",
"                                                                "
};
