/* XPM */
static char *e81fd7ab9b9e4a46cdd375f09fe67aeaQaXIKhtXXuZby3Tr[] = {
/* columns rows colors chars-per-pixel */
"64 64 57 1 ",
"  c None",
". c #000010",
"X c #00001C",
"o c #00002C",
"O c #000034",
"+ c #202020",
"@ c #2C2C2C",
"# c gray22",
"$ c #543C1C",
"% c #6C4824",
"& c #000040",
"* c #00004C",
"= c #000058",
"- c #000064",
"; c #000070",
": c #00007C",
"> c #484848",
", c gray33",
"< c #646464",
"1 c gray44",
"2 c #7C7C7C",
"3 c #80502C",
"4 c #885830",
"5 c #905C34",
"6 c #9C6038",
"7 c #A0643C",
"8 c #E46C00",
"9 c #B47044",
"0 c #BC7848",
"q c #C87C4C",
"w c #9C9C00",
"e c #FCF400",
"r c #D08050",
"t c #DC8854",
"y c #E88C58",
"u c #F0945C",
"i c #FC9C60",
"p c #FCA470",
"a c #FCFC54",
"s c #000088",
"d c #000098",
"f c #0000A4",
"g c #0000B0",
"h c #0000BC",
"j c #0000C8",
"k c #0000D4",
"l c #0000E0",
"z c gray55",
"x c #989898",
"c c gray66",
"v c #B4B4B4",
"b c #FCB080",
"n c #FCB890",
"m c #FCBC9C",
"M c #FCC4A4",
"N c #FCCCB0",
"B c #FCE0D0",
/* pixels */
"                                                                ",
"                                                                ",
"                                                                ",
"                                                                ",
"                                                                ",
"                                                                ",
"                                                                ",
"                                                                ",
"                                                                ",
"                               fkl                              ",
"                            ffffkl.                             ",
"                           lffffk...                            ",
"                          lllffl.....                           ",
"                          h;lll......                           ",
"                          =;;;;.....                            ",
"                          9ah;;....84                           ",
"                          3eqhqu6hqw%                           ",
"                          9pnMbr4mbr4                           ",
"                           pnpiiiiq0                            ",
"                           pnuNBBpqr                            ",
"                           bnuppppqy                            ",
"                          @5bppqpuu3.                           ",
"                          @@5555533..                           ",
"                      ;gg@@z+qq933.,...*                        ",
"                     ggg@@@@z..3..,.---**                       ",
"                    gglg@@@g.*...*.;fff;=*                      ",
"                    gg-f@@@&ss-ffffffgg;;&*                     ",
"                   ggssgg@@@ss-gsssssggf;;&                     ",
"                   gg*sgg@@@&s-fddddsfsgg;;*                    ",
"                   gs*sff*@@.&-f;;;;;f-ggg;;&                   ",
"                  g:;=Odd:....Xf-:::*s-sssdXX                   ",
"                  gggOO---&....==***=sO-OOO--&                  ",
"                  gg::*X-=<12,...==1==OO-OddX&                  ",
"                   :gggzzzxxxxxcccc@+*;sdsd&XX                  ",
"                   ggggz,,>>>>>>>,,@@sddd;=d-&                  ",
"                   *glv.,,,+++XX##@+X,s;;==&.                   ",
"                    *z::9..>>@X%%%%%X&,===&.                    ",
"                    Oz=7iiy,,@X40t6%X&>=&&.                     ",
"                     ,*tit7,,@X40t6%X&#&.                       ",
"                      *tii7$XXX477%%XXXX                        ",
"                       -77%$XXXXXX;;;ooXX                       ",
"                       hh-*&ooXXXo&&&&ooX                       ",
"                      hhhh-*&ooXo&=ss-o&o                       ",
"                      hhhhd-*&oXo&ss;=*oo                       ",
"                      hhhhd-*&oXo&-====&o                       ",
"                     hhhhd:-&&oX&*=====&o                       ",
"                     hhhdd:-*&oX&===;;:=o                       ",
"                     hhhd:-*&oXX&==;ds:=&o                      ",
"                    hhhdd:-*oo X&-;ddss-&o                      ",
"                   :hhhhhh::*X  &-:dddd:*o                      ",
"                   :hjlf--**oX  o::d--d::o                      ",
"                    hf:;--&Oo   o:o-==-*o&                      ",
"                    h:---&OooX  X&-====&*X                      ",
"                     &&&OOoXXX  XO-==*&&OX                      ",
"                     oooX....X  XXO&&&OoXX                      ",
"                     ooXXX..XX   .XXXX...                       ",
"                      ooXX..XX   .OX*X...                       ",
"                      XoooX.X    .XO*X..                        ",
"                      X.X....X    ...OX.                        ",
"                      oOX....X    ..&...                        ",
"                     oOoo....X   .XX&O...                       ",
"                    XOOoX....    XOO&&OX.                       ",
"                    XOOoX...     XXOO&OX..                      ",
"                     XXX...       XXXXXX..                      "
};
