/* XPM */
static char *b07002ee7cd543eadf70e9c168bb7fa6VoErekZV6e6ZdoO8[] = {
/* columns rows colors chars-per-pixel */
"64 64 47 1 ",
"  c None",
". c #000010",
"X c #00001C",
"o c gray11",
"O c #00002C",
"+ c #000034",
"@ c #202020",
"# c #400000",
"$ c #4C0000",
"% c #580000",
"& c #700000",
"* c #7C0000",
"= c #543C1C",
"- c #5C4020",
"; c #6C4824",
": c #000040",
"> c #00004C",
", c #000058",
"< c #000064",
"1 c #000070",
"2 c #00007C",
"3 c #880000",
"4 c #980000",
"5 c #A40000",
"6 c #B00000",
"7 c #E00000",
"8 c #EC0000",
"9 c #FC0000",
"0 c #80502C",
"q c #9C6038",
"w c #A0643C",
"e c #B47044",
"r c #BC7848",
"t c #C87C4C",
"y c #D08050",
"u c #DC8854",
"i c #E88C58",
"p c #F0945C",
"a c #FC9C60",
"s c #000088",
"d c #000098",
"f c #0000A4",
"g c #0000BC",
"h c #4040FC",
"j c #FCB080",
"k c #FCB890",
"l c #FCD4BC",
/* pixels */
"                                                                ",
"                                                                ",
"                                                                ",
"                                                                ",
"                                                                ",
"                                                                ",
"                                                                ",
"                                                                ",
"                                                                ",
"                                                                ",
"                                                                ",
"                                                                ",
"                                                                ",
"                                                                ",
"                                                                ",
"                                                                ",
"                                                                ",
"                                                                ",
"                                                                ",
"                                                                ",
"                                                                ",
"                          7                                     ",
"                                   7      7                     ",
"                                                                ",
"                               6                                ",
"                                                                ",
"                             5          6                       ",
"                               6 *6     6                       ",
"                                 **   7   6                     ",
"                            7%                                  ",
"                            %%         47                       ",
"                           5 4 5 f::::.7   64                   ",
"                             * sss::7..74  4%                   ",
"                           8  9s0ejre0.47 7 4                   ",
"                          7 5 shylll3pp.%                       ",
"                            8 sk9iiye9p4ddd7                    ",
"                           7*:7::333:d4%4$ddddd                 ",
"                         sd75&694$$::$$$$$$ssssdd               ",
"                        ddd&&&&794d::::dds1111112dd             ",
"                      1ddd111s47.........1,,>>>>111uuu          ",
"                     1d1s1>1>1.9944#:11::..,,::>,<11qqu         ",
"                   1ddds1>:::.#4&&##:ssss::.1:::>,,,qqeu        ",
"                  ddds21X:XXX:##,,,,,,fffffd%   XX::qqqu        ",
"                 tid111:XXXXXX,,fffs:sggggggg        qeq        ",
"                ai--1:::X   X,fgggf<:fgggggggg        u         ",
"                aaw--:X    ,sgggggf<,sfgggggggg                 ",
"                uaa;=     Xsggggfds<,1sff>fffgg ::              ",
"                uaa;=     ,gggggfds<:X22,,2f,:.::oo             ",
"                 w;=      ggggggsss::X>2,,1,,X::oooo            ",
"                         sgfggfgg,,:X XXX>.++X:Ooooo            ",
"                         ffggfd,,2,+$  3 ,.+X:Oooooo            ",
"                        ffggfs2<+>> &     ..XOOoooo             ",
"                        f>>>>s2<>,  3      ..O.oooo             ",
"                        ++++XX>..           ..oooo              ",
"                       :++++XX.:.           ..oooo              ",
"                       ::::+XX.:             .ooo               ",
"                       :XXXX..@>                                ",
"                       .XXX.@.                                  ",
"                        .::...                                  ",
"                      ,,,,,+.                                   ",
"                     ,::::+X..                                  ",
"                     ......XXX                                  ",
"                       .......                                  ",
"                                                                "
};
