/* XPM */
static char *_76c102b2e954f2f9370201209bae024PVmms1jCyKlZ7UFg[] = {
/* columns rows colors chars-per-pixel */
"64 64 67 1 ",
"  c None",
". c #000010",
"X c #00001C",
"o c #00002C",
"O c #000034",
"+ c #202020",
"@ c #2C2C2C",
"# c gray22",
"$ c #543C1C",
"% c #5C4020",
"& c #6C4824",
"* c #000040",
"= c #00004C",
"- c #000058",
"; c #000064",
": c #000070",
"> c #00007C",
", c #484848",
"< c gray33",
"1 c #646464",
"2 c gray44",
"3 c #980000",
"4 c #A40000",
"5 c #B00000",
"6 c #E00000",
"7 c #EC0000",
"8 c #FC0000",
"9 c #FC2020",
"0 c #80502C",
"q c #885830",
"w c #905C34",
"e c #9C6038",
"r c #A0643C",
"t c #E46C00",
"y c #A86840",
"u c #B47044",
"i c #BC7848",
"p c #FC4040",
"a c #FC5C5C",
"s c #C87C4C",
"d c #FC7C7C",
"f c #9C9C00",
"g c #B4AC00",
"h c #FCF400",
"j c #D08050",
"k c #DC8854",
"l c #E88C58",
"z c #F0945C",
"x c #FC9C60",
"c c #FCA470",
"v c #FCF440",
"b c #FCFC54",
"n c #000088",
"m c #000098",
"M c #0000A4",
"N c #0000B0",
"B c #0000BC",
"V c #0000C8",
"C c #0000D4",
"Z c #0000E0",
"A c gray55",
"S c #FCB080",
"D c #FCB890",
"F c #FCBC9C",
"G c #FCC4A4",
"H c #FCCCB0",
"J c #FCE0D0",
/* pixels */
"                                                                ",
"                                                                ",
"                                                                ",
"                                                                ",
"                                                                ",
"                                                                ",
"                                                                ",
"                                                                ",
"                                                                ",
"                              MCZ                               ",
"                           MMMMCZ.                              ",
"                          ZMMMMC...                             ",
"                         ZZZMMZ.....                            ",
"                         B:ZZZ......                            ",
"                         -::::.....                             ",
"                         ubB::....tq                            ",
"                         0hsBszeBsf&                            ",
"                         ucDGSjqFSjq                            ",
"                          cDcxxxxsi                             ",
"                          cDzHJJcsj                             ",
"                          SDzccccsl                             ",
"                         @wSccsczz0.                            ",
"                         @@wwwww0$..                            ",
"                      :N1@Asssu0.<....                          ",
"                     NN,,-A.0,..<.*>>>>                         ",
"                    NNZ,#*.=...*.-MMMMn>                        ",
"                   NNN;,#*NNn:MMMMMNNMMn                        ",
"                   NNnN,,#-N;n>>::Z=ZMMn>                       ",
"                  NN>=N,,#*3;N>mm=Z;;NN>>                       ",
"                  NNn=8*,,#5;N>--n=ZZNNN>                       ",
"                  N>>;n4p44744:>-N;ZVNNN>                       ",
"                  NNNOnn4f9a89pa-N;VVNNN>:                      ",
"                  NN>>:669dgd94p6m;>nZZZCm                      ",
"                  >>3887aagvgaa7883VVZZ;;**                     ",
"                   =NN:66adgda66nNZZV>ZZ;;*                     ",
"                   >NZuu89aaa9@+<BB>:N=:;;                      ",
"                   =Auuuu9994qBBB2M;-*****                      ",
"                   O<kxkrj33yq;MM2;;******                      ",
"                    =kxxrij3q%X;;,X*****                        ",
"                     ;rr&$XXXXXXXXXXXXXX                        ",
"                      >>ooooXXXXoO**OooX                        ",
"                      B>*OOOoXXoO:--**Oo                        ",
"                      Bm>**OoXXO*----;*O                        ",
"                     BNn>;=OoXXO--:nn:=*                        ",
"                     BNn;;=OoXX*-:nMMn;*                        ",
"                     BM>;==OoXX*:nMMMm:=                        ",
"                     Nm;==*OoXX*:mMMMm:=                        ",
"                    NMm;=OOOoXX*;MMMMM>;                        ",
"                   >Nm;===OoXXX*;MmMMM>;*                       ",
"                   >M;;==*=OOX *;>mMMM>>*                       ",
"                   >;=;==*oOoX >>Mm;;m>>>                       ",
"                    ****=**oX =>M*;-=;=o>X                      ",
"                    X*****oXX.=**o*===*=oX                      ",
"                    oX.......  ooo*==**oX                       ",
"                    *ooX....    Xoo***ooX                       ",
"                     **oXX..    XoOOoX..                        ",
"                     ......     XoOOOoX.                        ",
"                      XXXX..     XO**Oo.                        ",
"                     **OooX.     .XXO*o.                        ",
"                     ****oX.      ......                        ",
"                    ***OoX..     .O**OoX.                       ",
"                    *oooX..      oO**OOoX                       ",
"                                 ooOO*OoX.                      ",
"                                  ooooX...                      "
};
