/* XPM */
static char *_95e89137e424443ef5318b1808c402bcE24TQS40qDADWn2[] = {
/* columns rows colors chars-per-pixel */
"64 64 54 1 ",
"  c None",
". c #000010",
"X c #00001C",
"o c #00002C",
"O c #000034",
"+ c #202020",
"@ c #2C2C2C",
"# c gray22",
"$ c #5C4020",
"% c #6C4824",
"& c #000040",
"* c #00004C",
"= c #000058",
"- c #000064",
"; c #000070",
": c #00007C",
"> c #484848",
", c gray33",
"< c #646464",
"1 c gray44",
"2 c #80502C",
"3 c #885830",
"4 c #905C34",
"5 c #9C6038",
"6 c #A0643C",
"7 c #B47044",
"8 c #C87C4C",
"9 c #B4AC00",
"0 c #CCC400",
"q c #FCF400",
"w c #D08050",
"e c #DC8854",
"r c #E88C58",
"t c #F0945C",
"y c #FC9C60",
"u c #FCA470",
"i c #000088",
"p c #000098",
"a c #0000A4",
"s c #0000B0",
"d c #0000BC",
"f c #0000C8",
"g c #0000D4",
"h c #0000E0",
"j c #0000EC",
"k c #0000FC",
"l c gray66",
"z c #FCB080",
"x c #FCB890",
"c c #FCBC9C",
"v c #FCC4A4",
"b c #FCCCB0",
"n c #C0C0C0",
"m c #FCD8C4",
/* pixels */
"                                                                ",
"                                                                ",
"                                                                ",
"                                                                ",
"                                                                ",
"                                                                ",
"                                                                ",
"                               ff                               ",
"                            paaak.                              ",
"                          aaaaak:..                             ",
"                         phaaah:....                            ",
"                         p;hhh:.....                            ",
"                         p;;;;.....                             ",
"                         7q;;;....03                            ",
"                         2q8d8t5d89%                            ",
"                         7yxvzw3cxw3                            ",
"                          yxzuuuuuw                             ",
"                          yxtbmmxrw                             ",
"                         .yxtuuutr2.                            ",
"                         .@uuu8ure@.*                           ",
"                      @@@.#7766442@#..**                        ",
"                    pp;@@.n<..2..l<+*;i-*                       ",
"                   pssd@@@.+;&.&;.+:ii;;-*                      ",
"                  psdss;@@@ppp&;pppiiiiii;*                     ",
"                  psgspp@@.oiii=iiii:;ippi-*                    ",
"                 pdgssp;o..o;;;=;;;;;;aappi*                    ",
"                 dggsp:=o...o;-&===::;aaaap;*                   ",
"                pdkkh;;&,,>..O&&&&===;iaaaii*                   ",
"                djjss;;,<1<1<>ooOOO&O&=iii:;*                   ",
"                djjg11i<>>11111>>oooooiiaa***                   ",
"                dgg11pw>###>,<111<>ooiaaap;**                   ",
"                dgk1gww662>####>,<11<>>1p:;**                   ",
"                 gg1aww6$$&<,#&####><11+:***                    ",
"                  g::ww66$.<<#..w62##>>+***                     ",
"                     2222$o<<#ooww662*****                      ",
"                      :=&&&,<#o&ww662&XX                        ",
"                      :=&&&&oo&*2222$&&X                        ",
"                      :i;;=&oX&-;;;a--&X                        ",
"                      :i::=&oX*;;;aa::&X                        ",
"                      -i::=&oX-*-:::-*oX                        ",
"                      ---=&oXX*-pppp;-oo                        ",
"                      :i===&oX&pssssi;*o                        ",
"                      :i===&oX&pssssi;*o                        ",
"                      ;:==&&oX&pssssp:*o                        ",
"                       &--&&oX*pssssp:o                         ",
"                      &-&&&&oXXpaaaaa:o                         ",
"                      &&&&&&oX&aaaaia:o                         ",
"                      &&&&&&oX:aaaaiaao                         ",
"                      &&&&&oooa-ppp;**:o                        ",
"                       +.......;ppp;=&oX                        ",
"                        o......;:::;=&X                         ",
"                        oX......====&&X                         ",
"                        &XX............                         ",
"                        &&o....o&&o....                         ",
"                        =ooX...o&&oXX..                         ",
"                        =&&X...o&&oXX..                         ",
"                        &&oX.. o&&oXX..                         ",
"                               .o&&XX..                         ",
"                                ......                          ",
"                               &&ooX..                          ",
"                              .&ooX....                         ",
"                              &&&&&ooX.                         ",
"                              &ooooX...                         ",
"                                                                "
};
