/* XPM */
static char *b826bdbd494b4069eca8a7ac2ed4c6actm6WfE3Ya6I2BOv5[] = {
/* columns rows colors chars-per-pixel */
"64 64 54 1 ",
"  c None",
". c #000010",
"X c #00001C",
"o c #00002C",
"O c #000034",
"+ c #202020",
"@ c #2C2C2C",
"# c gray22",
"$ c #483818",
"% c #5C4020",
"& c #6C4824",
"* c #000040",
"= c #00004C",
"- c #000058",
"; c #000064",
": c #000070",
"> c #00007C",
", c #484848",
"< c gray33",
"1 c #646464",
"2 c gray44",
"3 c #80502C",
"4 c #885830",
"5 c #905C34",
"6 c #9C6038",
"7 c #A0643C",
"8 c #B47044",
"9 c #C87C4C",
"0 c #B4AC00",
"q c #CCC400",
"w c #FCF400",
"e c #D08050",
"r c #DC8854",
"t c #E88C58",
"y c #F0945C",
"u c #FC9C60",
"i c #FCA470",
"p c #000088",
"a c #000098",
"s c #0000A4",
"d c #0000B0",
"f c #0000BC",
"g c #0000C8",
"h c #0000D4",
"j c #0000E0",
"k c #0000FC",
"l c gray66",
"z c #FCB080",
"x c #FCB890",
"c c #FCBC9C",
"v c #FCC4A4",
"b c #FCCCB0",
"n c #C0C0C0",
"m c #FCD8C4",
/* pixels */
"                                                                ",
"                                                                ",
"                                                                ",
"                                                                ",
"                                                                ",
"                                                                ",
"                                                                ",
"                                                                ",
"                                                                ",
"                                                                ",
"                                sgg                             ",
"                              asssk.                            ",
"                            sssssk>..                           ",
"                           :jsssj>....                          ",
"                           ::jjj>.....                          ",
"                           :::::.....                           ",
"                           8w:::....q4                          ",
"                           3w9f9y6f90&                          ",
"                           8uxvze4cxe4                          ",
"                            uxziiiiie                           ",
"                          **uxybmmxte                           ",
"                        a*@.uxyiiiyt3                           ",
"                      aa>*@++iii9itr@.                          ",
"                     aff;@++n8877553@.=                         ",
"                    ffff*++O1#.33....===                        ",
"                   ffkhd*++O..:.*.l1.::::                       ",
"                   kkhda=..OOp=*...:::pp::                      ",
"                  ddhda>=O.XO:=->pppp=;::p                      ",
"                  dkkd:;;O.XO==->;;===:pp:p                     ",
"                  kh*12<**..XO=->=>>>:ppsp:                     ",
"                  dk,122,*X..XOo*****pfsspp                     ",
"                  dh,<111<*X..XoO***pffsspp                     ",
"                  dae,<<22<.....oOOOpffssp>                     ",
"                  dde7,<122<.....ooopffspp:                     ",
"                   de711,<12<#......pfspp:=                     ",
"                   de711#,,<1<#...>>d:hp>p:                     ",
"                    3331,:,,<12,:hhhhd:::::                     ",
"                       1<:*<,<11<dddd:d:==                      ",
"                       pp:**e,,,%::::=====                      ",
"                        apppee3%$====*===                       ",
"                        asap333%$====**XX                       ",
"                        pada%%%$$OOOOOOOX                       ",
"                        pafdsapp--XoooooX                       ",
"                        >afffdaa:-XXXXXXX                       ",
"                        >afffffa:-oooXXXX                       ",
"                        ;afffffd>-oooooX                        ",
"                         afffffdp;o=**oo                        ",
"                        pfhffffap;*****o                        ",
"                        shpffffhd--*****o                       ",
"                        hpaaaaa:hp*o***oo                       ",
"                        ppaaaaap**oooooo                        ",
"                        ==paaaa>**oooooX                        ",
"                         =:ppp>;..XXXXX.                        ",
"                         ==----........                         ",
"                         OOOXX....oXX..                         ",
"                         *OOOX....oXX..                         ",
"                         *OOOX.........                         ",
"                         *OOOX....O*OXX                         ",
"                         .XXOX....O*OXX                         ",
"                          *OX.... OXXXX                         ",
"                          .*OX...                               ",
"                         =*OooXX..                              ",
"                        #**OooXX..#                             ",
"                        #*OOoX....#                             "
};
