/* XPM */
static char *_e5dae0de33e4630f0e890b30a352c28SByTEASHJ1b5Rp37[] = {
/* columns rows colors chars-per-pixel */
"64 64 55 1 ",
"  c None",
". c #000010",
"X c #00001C",
"o c #00002C",
"O c #000034",
"+ c #202020",
"@ c #2C2C2C",
"# c gray22",
"$ c #543C1C",
"% c #5C4020",
"& c #6C4824",
"* c #744C28",
"= c #000040",
"- c #00004C",
"; c #000058",
": c #000064",
"> c #000070",
", c #00007C",
"< c #484848",
"1 c gray33",
"2 c #646464",
"3 c #80502C",
"4 c #885830",
"5 c #905C34",
"6 c #9C6038",
"7 c #A0643C",
"8 c #E46C00",
"9 c #B47044",
"0 c #BC7848",
"q c #C87C4C",
"w c #9C9C00",
"e c #FCF400",
"r c #D08050",
"t c #DC8854",
"y c #E88C58",
"u c #F0945C",
"i c #FC9C60",
"p c #FCA470",
"a c #FCFC54",
"s c #000088",
"d c #000098",
"f c #0000A4",
"g c #0000B0",
"h c #0000BC",
"j c #0000C8",
"k c #0000D4",
"l c #0000E0",
"z c gray55",
"x c #B4B4B4",
"c c #FCB080",
"v c #FCB890",
"b c #FCBC9C",
"n c #FCC4A4",
"m c #FCCCB0",
"M c #FCE0D0",
/* pixels */
"                                                                ",
"                                                                ",
"                                                                ",
"                                                                ",
"                                                                ",
"                                                                ",
"                                                                ",
"                                                                ",
"                                                                ",
"                              fkl                               ",
"                           ffffkl.                              ",
"                          lffffk...                             ",
"                         lllffl.....                            ",
"                         h>lll......                            ",
"                         ;>>>>.....                             ",
"                         9ah>>....84                            ",
"                         3eqhqu6hqw&                            ",
"                         9ivncr4bcr4                            ",
"                          pvpiiiiq0                             ",
"                          pvumMMpqr                             ",
"                          cvuppppqy                             ",
"                         @5cppqpuu3.                            ",
"                         @@555553$..                            ",
"                      >g2@zqqq93.1....                          ",
"                     gg<<;z.3<..1.=,,,,                         ",
"                    ggl<#=.-...=.;ffffs,                        ",
"                    gg:<#=ggs>fffffggffs                        ",
"                   ggsg<<#;g:s,,>>l-lffs,                       ",
"                   gg-g<<#=g:g,dd-l::ggs,                       ",
"                   gs-g=<##s:g,;;s-llggg,                       ",
"                   g,:sg<<@s:g>,;g:ljgggd                       ",
"                  gggOsg<<x2:gg>;g:jjgggg,                      ",
"                  gg,,>g;z#+1dgddd:Oslllkd                      ",
"                   ,gg>gx#+++>sss>jjjll::==                     ",
"                   ggg>>z1#+@>>>sglljg=l::=                     ",
"                   -glz>.1++##@+1sgg>;g.::                      ",
"                    -z,9..&&%%%X=1;;;;=:==                      ",
"                    Oz7iiy04**&X=<;=;=XX==                      ",
"                     1tit70444&X=#=X=XX=                        ",
"                     -tii7074%%XXXXXXX=                         ",
"                      :77&$XXXXX=;;==oo=                        ",
"                      h,:-==OoX=;ss>==o=                        ",
"                      hg,:-=OoX==>>;;:==                        ",
"                     hg,,:-=OoX=;;;;;>-=                        ",
"                     hg,::-=OoX=;;;>>::=                        ",
"                     hf,:--=OoX=;:>fs>:-                        ",
"                     gd:--==OoX=;>dff,;-                        ",
"                     fd:--==OoX=:>dfff;-                        ",
"                   ,gd:----OoXX=:>dfff:-X                       ",
"                   ,f=:--O---X =:,dfff,,X                       ",
"                   ,:-:--=O-oX ,,fd::d,,,                       ",
"                    ===--==oX -,f=:;-:-X,X                      ",
"                    o=====oX..-.===---X-XX                      ",
"                    ooX......  ..==--==XX                       ",
"                    =ooXX...    ..=====XX                       ",
"                     ==oX...    .ooooX..                        ",
"                     ooX...     ..o==X..                        ",
"                      ......     .o==o..                        ",
"                     ==oXX..     .oo=o..                        ",
"                     =ooooX.      ......                        ",
"                    ====oX..     .o==o...                       ",
"                    oooXX..      .o==oo..                       ",
"                                 .oo==o...                      ",
"                                  .oooo...                      "
};
