/* XPM */
static char *ea70ba1a5fe5443ee0f54918e6a53bddTBdGo4PGykTTg2v6[] = {
/* columns rows colors chars-per-pixel */
"64 64 56 1 ",
"  c None",
". c #000010",
"X c #00001C",
"o c #00002C",
"O c #000034",
"+ c #202020",
"@ c #2C2C2C",
"# c gray22",
"$ c #400000",
"% c #580000",
"& c #7C0000",
"* c #543C1C",
"= c #5C4020",
"- c #6C4824",
"; c #000040",
": c #00004C",
"> c #000058",
", c #000064",
"< c #000070",
"1 c #00007C",
"2 c gray33",
"3 c #7C7C7C",
"4 c #880000",
"5 c #BC0000",
"6 c #C80000",
"7 c #E00000",
"8 c #FC0000",
"9 c #80502C",
"0 c #885830",
"q c #905C34",
"w c #9C6038",
"e c #A0643C",
"r c #B47044",
"t c #BC7848",
"y c #C87C4C",
"u c #9C9C00",
"i c #B4AC00",
"p c #D08050",
"a c #DC8854",
"s c #E88C58",
"d c #F0945C",
"f c #FC9C60",
"g c #FCA470",
"h c #000088",
"j c #000098",
"k c #0000A4",
"l c #0000BC",
"z c #0000D4",
"x c #0000E0",
"c c #4040FC",
"v c gray66",
"b c #FCB080",
"n c #FCB890",
"m c #FCBC9C",
"M c #FCC4A4",
"N c #FCD4BC",
/* pixels */
"                                                                ",
"                                                                ",
"                                                                ",
"                                                                ",
"                                                                ",
"                                                                ",
"                                                                ",
"                                                                ",
"                                                                ",
"                                                                ",
"                                                                ",
"                                                                ",
"                                                                ",
"                                                                ",
"                                                                ",
"                                                                ",
"                                                                ",
"                                                                ",
"                                 k;;;;.                         ",
"                               hhh;;;...                        ",
"                              xh9rbtr9..                        ",
"                              hcpfp0fyu..                       ",
"                              hnMMggmni-. 8                     ",
"                              hgmNNN4dwp. 4                     ",
"                               g32abb4rp8                       ",
"                         % 7&  322assaa984   %                  ",
"                              322sspr8.4..48                    ",
"                         55  322@ddp..v48.44<<<6                ",
"                         5& 3222&..&..kk.:jh%6jjj<<             ",
"                           32@2+7...,$8$$kkj%%jj,jj             ",
"                          332@+7&..,$8444$$kj,,;,j<j:           ",
"                        <3332jj&,,+:.44%$$$><,;aaa-j:           ",
"                      <<3332hj$&&$,;..>$$$>,.;;o-ta-:           ",
"                     <<3232,14$4$$4;,...jj,,;ooo-waw:           ",
"                     z32#@XX:1h$$$j;k,..6,,;;o  ;wwww           ",
"                    1rfsq=:XX414k6;222;;;O;;oo     ww           ",
"                    effe*=XXX,,;4.4###oooooooo     ww           ",
"                    afae*<XXXXX46$11<1<,>;ooo                   ",
"                    afe-*.  XX$644$$<kkkkkh,o                   ",
"                     e-*    X,$4$$k<;h<<<hkh                    ",
"                             k$$kh<:;<hhhhh>>                   ",
"                             khh<>ooohkkkkjh,                   ",
"                            kh<,>;;ookkkkkjj1                   ",
"                           khkkkk,,;>hkkkkkjj>                  ",
"                           kkkkkkk,;><jkkkkkj>                  ",
"                          kklkkkk1,;><hkkhhkj1>                 ",
"                          kklkkkk1,;;<<jj<<<hh>                 ",
"                          kklkkk1,:o o<j::<<<<;                 ",
"                         kkllkk11,O  ooh::::::;                 ",
"                         kkllkk1,:o   >.::....;                 ",
"                         kklkkh1ooo   ..:.;;OO;                 ",
"                         kxxkk,::o     >;O;;OO.                 ",
"                         lkk1<::;o      XO;XX.o                 ",
"                         ;;;.::;;o      XoXoo;OO..              ",
"                        ;;;;..;;oo       XX.;;X....             ",
"                        ;;;O...oo         ;OOX.....             ",
"                        Oooo...o          ;;;......             ",
"                        .XXX.o.           X;X.....              ",
"                         .>O...           ;X.....               ",
"                         ;;OO.            ......                ",
"                        .;o...                                  ",
"                       .OOOX...                                 ",
"                      .OOXXX...                                 ",
"                      ........                                  "
};
