/* XPM */
static char *ead526b6fe64427c9cf0e18b375c7674cxf5KEIm2pyy1ff3[] = {
/* columns rows colors chars-per-pixel */
"128 128 91 1 ",
"  c #000001",
". c #00001C",
"X c #28200C",
"o c #202020",
"O c #2C2C2C",
"+ c gray19",
"@ c gray22",
"# c #400000",
"$ c #4C0000",
"% c #580000",
"& c #640000",
"* c #700000",
"= c #7C0000",
"- c #403018",
"; c #585400",
": c #706C00",
"> c #5C4020",
", c #6C4824",
"< c #744C28",
"1 c #004040",
"2 c #005858",
"3 c #007070",
"4 c #007C7C",
"5 c gray25",
"6 c #484848",
"7 c gray33",
"8 c gray36",
"9 c #646464",
"0 c gray44",
"q c #7C7C7C",
"w c #880000",
"e c #A40000",
"r c #A80000",
"t c #B00000",
"y c #BC0000",
"u c #C80000",
"i c #D40000",
"p c #E00000",
"a c #EC0000",
"s c #FC0000",
"d c #9C4C00",
"f c #A85400",
"g c #B45400",
"h c #80502C",
"j c #885830",
"k c #905C34",
"l c #A0643C",
"z c #E46C00",
"x c black",
"c c #A86840",
"v c #B47044",
"b c #BC7848",
"n c #FC5454",
"m c #C87C4C",
"M c #848400",
"N c #9C9C00",
"B c #FC8820",
"V c #FCCC18",
"C c #D08050",
"Z c #DC8854",
"A c #E88C58",
"S c #F0945C",
"D c #FC9C60",
"F c #FCA470",
"G c black",
"H c #008484",
"J c #008C8C",
"K c #009C9C",
"L c #00A8A8",
"P c #00B4B4",
"I c #20B4B4",
"U c #00CCCC",
"Y c #00E4E4",
"T c #00FCFC",
"R c #74C8C8",
"E c gray55",
"W c #989898",
"Q c gray66",
"! c #B4B4B4",
"~ c #FCB080",
"^ c #FCB890",
"/ c #FCBC9C",
"( c #FCC4A4",
") c #FCCCB0",
"_ c #FCD4BC",
"` c #C0C0C0",
"' c #D0D0D0",
"] c gainsboro",
"[ c #FCD8C4",
"{ c #ECECEC",
"} c white",
/* pixels */
"GGxGGGGGGGGGGGGGGGGGGGGGGGGGGGGGGGGGGGGGGGGGGGGGGGGGGGGGGGGGGGGGGGGGGGGGGGGGGGGGGGGGGGGGGGGGGGGGGGGGGGGGGGGGGGGGGGGGGGGGGGGGGGGG",
"xxxxxxxxxxxxxxxxxxxxxxxxxxxxxxxxxxxxxxxxxxxxxxxxxxxxxxxxxxxxxxxxxxxxxxxxxxxxxxxxxxxxxxxxxxxxxxxxxxxxxxxxxxxxxxxxxxxxxxxxxxxxxxxx",
"GGxGGGGGGGGGGGGGGGGGGGGGGGGGGGGGGGGGGGGGGGGGGGGGGGGGGGGGGGGGGGGGGGGGGGGGGGGGGGGGGGGGGGGGGGGGGGGGGGGGGGGGGGGGGGGGGGGGGGGGGGGGGGGG",
"GGxGGGGGGGGGGGGGGGGGGGGGGGGGGGGGGGGGGGGGGGGGGGGGGGGGGGGGGGGGGGGGGGGGGGGGGGGGGGGGGGGGGGGGGGGGGGGGGGGGGGGGGGGGGGGGGGGGGGGGGGGGGGGG",
"GGxGGGGGGGGGGGGGGGGGGGGGGGGGGGGGGGGGGGGGGGGGGGGGGGGGGGGGGGGGGGGGGGGGGGGGGGGGGGGGGGGGGGGGGGGGGGGGGGGGGGGGGGGGGGGGGGGGGGGGGGGGGGGG",
"GGxGGGGGGGGGGGGGGGGGGGGGGGGGGGGGGGGGGGGGGGGGGGGGGGGGGGGGGGGGGGGGGGGGGGGGGGGGGGGGGGGGGGGGGGGGGGGGGGGGGGGGGGGGGGGGGGGGGGGGGGGGGGGG",
"GGxGGGGGGGGGGGGGGGGGGGGGGGGGGGGGGGGGGGGGGGGGGGGGGGGGGGGGGGGGGGGGGGGGGGGGGGGGGGGGGGGGGGGGGGGGGGGGGGGGGGGGGGGGGGGGGGGGGGGGGGGGGGGG",
"GGxGGGGGGGGGGGGGGGGGGGGGGGGGGGGGGGGGGGGGGGGGGGGGGGGGGGGGGGGGGGGGGGGGGGGGGGGGGGGGGGGGGGGGGGGGGGGGGGGGGGGGGGGGGGGGGGGGGGGGGGGGGGGG",
"GGxGGGGGGGGGGGGGGGGGGGGGGGGGGGGGGGGGGGGGGGGGGGGGGGGGGGGGGGGGGGGGGGGGGGGGGGGGGGGGGGGGGGGGGGGGGGGGGGGGGGGGGGGGGGGGGGGGGGGGGGGGGGGG",
"GGxGGGGGGGGGGGGGGGGGGGGGGGGGGGGGGGGGGGGGGGGGGGGGGGGGGGGGGGGGGGGGGGGGGGGGGGGGGGGGGGGGGGGGGGGGGGGGGGGGGGGGGGGGGGGGGGGGGGGGGGGGGGGG",
"GGxGGGGGGGGGGGGGGGGGGGGGGGGGGGGGGGGGGGGGGGGGGGGGGGGGGGGGGGGGGGGGGGGGGGGGGGGGGGGGGGGGGGGGGGGGGGGGGGGGGGGGGGGGGGGGGGGGGGGGGGGGGGGG",
"GGxGGGGGGGGGGGGGGGGGGGGGGGGGGGGGGGGGGGGGGGGGGGGGGGGGGGGGGGGGGGGGGGGGGGGGGGGGGGGGGGGGGGGGGGGGGGGGGGGGGGGGGGGGGGGGGGGGGGGGGGGGGGGG",
"GGxGGGGGGGGGGGGGGGGGGGGGGGGGGGGGGGGGGGGGGGGGGGGGGGGGGGGGGGGGGGGGGGGGGGGGGGGGGGGGGGGGGGGGGGGGGGGGGGGGGGGGGGGGGGGGGGGGGGGGGGGGGGGG",
"GGxGGGGGGGGGGGGGGGGGGGGGGGGGGGGGGGGGGGGGGGGGGGGGGGGGGGGGGGGGGGGGGGGGGGGGGGGGGGGGGGGGGGGGGGGGGGGGGGGGGGGGGGGGGGGGGGGGGGGGGGGGGGGG",
"GGxGGGGGGGGGGGGGGGGGGGGGGGGGGGGGGGGGGGGGGGGGGGGGGGGGGGGGGGGGGGGGGGGGGGGGGGGGGGGGGGGGGGGGGGGGGGGGGGGGGGGGGGGGGGGGGGGGGGGGGGGGGGGG",
"GGxGGGGGGGGGGGGGGGGGGGGGGGGGGGGGGGGGGGGGGGGGGGGGGGGGGGGGGGGGGGGGGGGGGGGGGGGGGGGGGGGGGGGGGGGGGGGGGGGGGGGGGGGGGGGGGGGGGGGGGGGGGGGG",
"GGxGGGGGGGGGGGGGGGGGGGGGGGGGGGGGGGGGGGGGGGGGGGGGGGGGGGGGGGGGGGGGGGGGGGGGGGGGGGGGGGGGGGGGGGGGGGGGGGGGGGGGGGGGGGGGGGGGGGGGGGGGGGGG",
"GGxGGGGGGGGGGGGGGGGGGGGGGGGGGGGGGGGGGGGGGGGGGGGGGGGGGGGGGGGGGGGGGGGGGGGGGGGGGGGGGGGGGGGGGGGGGGGGGGGGGGGGGGGGGGGGGGGGGGGGGGGGGGGG",
"GGxGGGGGGGGGGGGGGGGGGGGGGGGGGGGGGGGGGGGGGGGGGGGGGGGGGGGGGGGGGGGGGGGGGGGGGGGGGGGGGGGGGGGGGGGGGGGGGGGGGGGGGGGGGGGGGGGGGGGGGGGGGGGG",
"GGxGGGGGGGGGGGGGGGGGGGGGGGGGGGGGGGGGGGGGGGGGGGGGGGGGGGGGGGGGGGGGGGGGGGGGGGGGGGGGGGGGGGGGGLHKKGGGGGGGGGGGGGGGGGGGGGGGGGGGGGGGGGGG",
"GGxGGGGGGGGGGGGGGGGGGGGGGGGGGGGGGGGGGGGGGGGGGGGGGGGGGGGGGGGGGGGGGGGGGGGGGGGGGGGGGGGGGGGGJK23K23GGGGGGGGGGGGGGGGGGGGGGGGGGGGGGGGG",
"GGxGGGGGGGGGGGGGGGGGGGGGGGGGGGGGGGGGGGGGGGGGGGGGGGGGGGGGGGGGGGGGGGGGGGGGGGGGGGGGGGGGGGGIK212@23JGGGGGGGGGGGGGGGGGGGGGGGGGGGGGGGG",
"GGxGGGGGGGGGGGGGGGGGGGGGGGGGGGGGGGGGGGGGGGGGGGGGGGGGGGGGGGGGGGGGGGGGGGGGGGGGGGGGGGGGGIIPH211@574HGGGGGGGGGGGGGGGGGGGGGGGGGGGGGGG",
"GGxGGGGGGGGGGGGGGGGGGGGGGGGGGGGGGGGGGGGGGGGGGGGGGGGGGGGGGGGGGGGGGGGGGGGGGGGGGGGGGGGG3HUUK2111@62HGGGGGGGGGGGGGGGGGGGGGGGGGGGGGGG",
"GGxGGGGGGGGGGGGGGGGGGGGGGGGGGGGGGGGGGGGGGGGGGGGGGGGGGGGGGGGGGGGGGGGGGGGGGGGGGGGGGGG23PUUU4111112KGGGGGGGGGGGGGGGGGGGGGGGGGGGGGGG",
"GGxGGGGGGGGGGGGGGGGGGGGGGGGGGGGGGGGGGGGGGGGGGGGGGGGGGGGGGGGGGGGGGGGGGGGGGGGGGGGGG322HUUYYL211113HGGGGGGGGGGGGGGGGGGGGGGGGGGGGGGG",
"GGxGGGGGGGGGGGGGGGGGGGGGGGGGGGGGGGGGGGGGGGGGGGGGGGGGGGGGGGGGGGGGGGGGGGGGGGGGGGG32333LUK2UUKJ42343GGGGGGGGGGGGGGGGGGGGGGGGGGGGGGG",
"GGxGGGGGGGGGGGGGGGGGGGGGGGGGGGGGGGGGGGGGGGGGGGGGGGGGGGGGGGGGGGGGGGGGGGGGGGGGGG323HHKPYK1YYUPKJHH2GGGGGGGGGGGGGGGGGGGGGGGGGGGGGGG",
"GGxGGGGGGGGGGGGGGGGGGGGGGGGGGGGGGGGGGGGGGGGGGGGGGGGGGGGGGGGGGGGGGGGGGGGGGL22212HJHKKHUUUYYUPPLJ4GGGGGGGGGGGGGGGGGGGGGGGGGGGGGGGG",
"GGxGGGGGGGGGGGGGGGGGGGGGGGGGGGGGGGGGGGGGGGGGGGGGGGGGGGGGGGGGGGGGGGGGGGGGLH22224KKLPLKLTTYU34PKHGGGGGGGGGGGGGGGGGGGGGGGGGGGGGGGGG",
"GGxGGGGGGGGGGGGGGGGGGGGGGGGGGGGGGGGGGGGGGGGGGGGGGGGGGGGGGGGGGGGGGGGGGGGGL43224KLLPPPKKUUYK12K44GGGGGGGGGGGGGGGGGGGGGGGGGGGGGGGGG",
"GGxGGGGGGGGGGGGGGGGGGGGGGGGGGGGGGGGGGGGGGGGGGGGGGGGGGGGGGGGGGGGGGGGGGGGGRP432KLPUUUPPLJKUP3HJ4GGGGGGGGGGGGGGGGGGGGGGGGGGGGGGGGGG",
"GGxGGGGGGGGGGGGGGGGGGGGGGGGGGGGGGGGGGGGGGGGGGGGGGGGGGGGGGGGGGGGGGGGGGGGGGUUH3LYYUYYUUPLJ4H323GGGGGGGGGGGGGGGGGGGGGGGGGGGGGGGGGGG",
"GGxGGGGGGGGGGGGGGGGGGGGGGGGGGGGGGGGGGGGGGGGGGGGGGGGGGGGGGGGGGGGGGGGGGGGGG2LLLUYYYTTYUPLLK321GGGGGGGGGGGGGGGGGGGGGGGGGGGGGGGGGGGG",
"GGxGGGGGGGGGGGGGGGGGGGGGGGGGGGGGGGGGGGGGGGGGGGGGGGGGGGGGGGGGGGGGGGGGGGGGG24HLPYYTTTTYUPPKH22GGGGGGGGGGGGGGGGGGGGGGGGGGGGGGGGGGGG",
"GGxGGGGGGGGGGGGGGGGGGGGGGGGGGGGGGGGGGGGGGGGGGGGGGGGGGGGGGGGGGGGGGGGGGGGGG4J4KPPYTTTUYPPLK422GGGGGGGGGGGGGGGGGGGGGGGGGGGGGGGGGGGG",
"GGxGGGGGGGGGGGGGGGGGGGGGGGGGGGGGGGGGGGGGGGGGGGGGGGGGGGGGGGGGGGGGGGGGGGGG3HJKPYLYTTYUUPPLJ321GGGGGGGGGGGGGGGGGGGGGGGGGGGGGGGGGGGG",
"GGxGGGGGGGGGGGGGGGGGGGGGGGGGGGGGGGGGGGGGGGGGGGGGGGGGGGGGGGGGGGGGGGGGGG24JJKPUPJ2TYUUPPKKH32GGGGGGGGGGGGGGGGGGGGGGGGGGGGGGGGGGGGG",
"GGxGGGGGGGGGGGGGGGGGGGGGGGGGGGGGGGGGGGGGGGGGGGGGGGGGGGGGGGGGGGGGGI42332HHKKUUH22LUUUPKKHH3GGGGGGGGGGGGGGGGGGGGGGGGGGGGGGGGGGGGGG",
"GGxGGGGGGGGGGGGGGGGGGGGGGGGGGGGGGGGGGGGGGGGGGGGGGGGGGGGGGGGGGGGRK22223HKJKUUK224KPPLHJ442GGGGGGGGGGGGGGGGGGGGGGGGGGGGGGGGGGGGGGG",
"GGxGGGGGGGGGGGGGGGGGGGGGGGGGGGGGGGGGGGGGGGGGGGGGGGGGGGGGGGGGGGGUH3223HK3PUUK223KLTLL4222GGGGGGGGGGGGGGGGGGGGGGGGGGGGGGGGGGGGGGGG",
"GGxGGGGGGGGGGGGGGGGGGGGGGGGGGGGGGGGGGGGGGGGGGGGGGGGGGGGGGGGGGGGRK4223HKLPUL213KPYTUPK42GGGGGGGGGGGGGGGGGGGGGGGGGGGGGGGGGGGGGGGGG",
"GGxGGGGGGGGGGGGGGGGGGGGGGGGGGGGGGGGGGGGGGGGGGGGGGGGGGGGGGGGGGGGGRJL3JHLPUP322HLYTUPK32GGGGGGGGGGGGGGGGGGGGGGGGGGGGGGGGGGGGGGGGGG",
"GGxGGGGGGGGGGGGGGGGGGGGGGGGGGGGGGGGGGGGGGGGGGGGGGGGGGGGGGGGGGGGGRUPLJLLYP422HLYTYUK332GGGGGGGGGGGGGGGGGGGGGGGGGGGGGGGGGGGGGGGGGG",
"GGxGGGGGGGGGGGGGGGGGGGGGGGGGGGGGGGGGGGGGGGGGGGGGGGGGGGGGGGGGGGGGG3KKKUUL4124LYTYULJ31GGGGGGGeGGGGGGGGGGGGGGGGGGGGGGGGGGGGGGGGGGG",
"GGxGGGGGGGGGGGGGGGGGGGGGGGGGGGGGGGGGGGGGGGGGGGGGGGGGGGGGGGGGGGGGG3JLUUPH21HKUTTULH321GGGGGGGGGGGGGGGGGGGGGGGGGGGGGGGGGGGGGGGGGGG",
"GGxGGGGGGGGGGGGGGGGGGGGGGGGGGGGGGGGGGGGGGGGGGGGGGGGGGGGGGGGGG22124KPUPK224JUYTYPJH21G=GGGGGGGeGGGGGGGGGGGGGGGGGGGGGGGGGGGGGGGGGG",
"GGxGGGGGGGGGGGGGGGGGGGGGGGGGGGGGGGGGGGGGGGGGGGGGGGGGGGGGGGGGG333KKPUUL223JPYTUUK4226GGGGGGGGGGGGGGGGGGGGGGGGGGGGGGGGGGGGGGGGGGGG",
"GGxGGGGGGGGGGGGGGGGGGGGGGGGGGGGGGGGGGGGGGGGGGGGGGGGGGGGGGGGGGH4JKLPUL3234PYTUPKK2189GG*GGGGGGGGGGGGGGGGGGGGGGGGGGGGGGGGGGGGGGGGG",
"GGxGGGGGGGGGGGGGGGGGGGGGGGGGGGGGGGGGGGGGGGGGGGGGGGGGGGGGGGGGGKHJLPUU422KLYTUUKJ228899GGGGGeGGGGGGGGGGGGGGGGGGGGGGGGGGGGGGGGGGGGG",
"GGxGGGGGGGGGGGGGGGGGGGGGGGGGGGGGGGGGGGGGGGGGGGGGGGGGGGGGGGGGGUULPUUJ22KLYYeULK32100009GGGGGGGGGGeGGGGGGGGGGGGGGGGGGGGGGGGGGGGGGG",
"GGxGGGGGGGGGGGGGGGGGGGGGGGGGGGGGGGGGGGGGGGGGGGGGGGGGGGGGGGGGGGPPUPK12HKUYYULK319eEEqE9GGGGGeGGGGGGGGGGGGGGGGGGGGGGGGGGGGGGGGGGGG",
"GGxGGGGGGGGGGGGGGGGGGGGGGGGGGGGGGGGGGGGGGGGGGGGGGGGG'``!WW0087RRUL423PUYTYPeJ13O9qWEEq0     GGGGGeGGGGGGGGGGGGGGGGGGGGGGGGGGGGGG",
"GGxGGGGGGGGGGGGGGGGGGGGGGGGGGGGGGGGGGGGGGGGQ9900QQ7700EWWWWQQ`]7}}H3LUTTYPLJ21e  8EWEE6*  e   GGGGGGGGGGGGGGGGGGGGGGGGGGGGGGGGGG",
"GGxGGGGGGGGGGGGGGGGGGGGGGGGGGGGGGGGGGGGGGQ!Q!QWqW!QW```Q!!!```]!7,bbkkkkkkkkm5   67QWE *     e   GGGGGGGGGGGGGGGGGGGGGGGGGGGGGGG",
"GGxGGGGGGGGGGGGGGGGGGGGGGGGGGGGGGGGGGGGGQW0QQ!'QWQ']'```''''']{{!7:bF^(^~FZbvkko8897WE  *  e      GGGGGGGGGGGGGGGGGGGGGGGGGGGGGG",
"GGxGGGGGGGGGGGGGGGGGGGGGGGGGGGGGGGGGGGGQQEQQQ`']QQ!'n]'''']]{{{{{!7~^^^^^^^^^Zke90E0EE  *     e e  GGGGGGGGGGGGGGGGGGGGGGGGGGGGG",
"GGxGGGGGGGGGGGGGGGGGGGGGGGGGGGGGGGGGGGGQ```QQQ'{]!Q'nn{{M;{{{{M;{{{)^^^^^^Ae^^Al0EWeEmmvll          GGGGGGGGGGGGGGGGGGGGGGGGGGGG",
"GGxGGGGGGGGGGGGGGGGGGGGGGGGGGGGGGGGGGGGQ!`''''''{]ni{nV{;;{{{{;;{{{7^^^^AAAcSt^SlEQWmFZmvlll     e  GGGGGGGGGGGGGGGGGGGGGGGGGGGG",
"GGxGGGGGGGGGGGGGGGGGGGGGGGGGGGGGGGGGGGGQQQ']]]]]]upi]p]({{{{{]]'']`7^^AAAccllS~^tWWQFmmbbbclj        GGGGGGGGGGGGGGGGGGGGGGGGGGG",
"GGxGGGGGGGGGGGGGGGGGGGGGGGGGGGGGGGGGGGGQWQ!]{{]]]]pp]uuz{]''''''''Q7AAAcll<<<<j*^lQmCmmbbbbj,,  e    GGGGGGGGGGGGGGGGGGGGGGGGGGG",
"GGxGGGGGGGGGGGGGGGGGGGGGGGGGGGGGGGGGGGQ```Q{]{{]]]p]Bipp_``'``````Q7l<<<<>00tt>,b^lcccccvbvh,jl      GGGGGGGGGGGGGGGGGGGGGGGGGGG",
"GGxGGGGGGGGGGGGGGGGGGGGGGGGGGGGGGGGGGGQ'{]]]]{{]]]sniisg'````QQ!```7><<<j0EEQe>h>clllllllcljlcll e    GGGGGGGGGGGGGGGGGGGGGGGGGG",
"GGxGGGGGGGGGGGGGGGGGGGGGGGGGGGGGGGGGGGQ`]'''''''u]sspuad`QQQQQWQ!QF79>>ljX o  *tj@lhllllllcbbclle     GGGGGGGGGGGGGGGGGGGGGGGGGG",
"GGxGGGGGGGGGGGGGGGGGGGGGGGGGGGGGGGGGGGQ'QWWWQ```]{piyyiWWWWWWEEEWQsN77>hj,  tetE7 oolvcclllcbblll     GGGGGGGGGGGGGGGGGGGGGGGGGG",
"GGxGGGGGGGGGGGGGGGGGGGGGGGGGGGGGGGGGGGGQEEW!''7'{]ptrtlq00qEEqqqqEs96Ws>><-  tt00   Obvcllllvbllle    GGGGGGGGGGGGGGGGGGGGGGGGGG",
"GGxGGGGGGGGGGGGGGGGGGGGGGGGGGGGGGGGGGGG!WQ!''`q'u]'ewj00000000000Eia6Ws7>>>>eet*to   Olcllllcblll     GGGGGGGGGGGGGGGGGGGGGGGGGG",
"GGxGGGGGGGGGGGGGGGGGGGGGGGGGGGGGGGGGGGG!0WQQE9Qw]'t7g<00999998797;tu6Wuu67qt*e*tE7    okllllcblll     GGGGGGGGGGGGGGGGGGGGGGGGGG",
"GGxGGGGGGGGGGGGGGGGGGGGGGGGGGGGGGGGGGGGG07779099W06666788778777776ttWuu6669eeetteE9    ojllcvbllle   GGGGGGGGGGGGGGGGGGGGGGGGGGG",
"GGxGGGGGGGGGGGGGGGGGGGGGGGGGGGGGGGGGGGGGG66667666w6w6Wssl787777&usrtspus667iwyytiEW7    o,,lbvlll   GGGGGGGGGGGGGGGGGGGGGGGGGGGG",
"GGxGGGGGGGGGGGGGGGGGGGGGGGGGGGGGGGGGGGGGGG7666y$ywt#Oyee;      #rrwtspuuuus6wwww6EE96   ooo,vll*k eGGGGGGGGGGGGGGGGGGGGGGGGGGGGG",
"GGxGGGGGGGGGGGGGGGGGGGGGGGGGGGGGGGGGGGGGGGGGGGGG$oyywtOOunso  #77uwwsw ss076# #  EEq77@ oO  ,llll  GGGGGGGGGGGGGGGGGGGGGGGGGGGGG",
"GGxGGGGGGGGGGGGGGGGGGGGGGGGGGGGGGGGGGGGGGGGwGGy07$twwywwdoooOo=riyewsrqus  0s##y O9E9e776o  O,ee*  GGGGGGGGGGGGGGGGGGGGGGGGGGGGG",
"GGxGGGGGGGGGGGGGGGGGGGGGGGGGGGGGGGGGGGGGGGGG$9wy$u#wtwOtOOOooo7rytrwspupia 7s### #@w09777O   oo   GGGGGGGGGGGGGGGGGGGGGGGGGGGGGG",
"GGxGGGGGGGGGGGGGGGGGGGGGGGGGGGGGGGGGGGGGGG$QwW0q$W#tqw9w66#ooOOwuss6sw  tu 7uu#####7Eq979O    @  GGGGGGGGGGGGGGGGGGGGGGGGGGGGGGG",
"GGxGGGGGGGGGGGGGGGGGGGGGGGGGGGGGGGGGGGGGGw$w`yww*$*syywwq$6OooO679sssssstt7ru  Xw## EQqp9Oo*  o*GuGGGGGGGGGGGGGGGGGGGGGGGGGGGGGG",
"GGxGGGGGGGGGGGGGGGGGGGGGGGGGGGGGGGGGGGGGQQQ]DwDttyssy9WyQ977@OO679qsyyisrtspus oo#y#70y77Oo   oGGuGGGGGGGGGGGGGGGGGGGGGGGGGGGGGG",
"GGxGGGGGGGGGGGGGGGGGGGGGGGGGGGGGGGGGGGG']`Q]t{]ttystttE'E0990OO777sy6wrrwtspuuuusX##w77w7    ouGGGGGGGGGGGGGGGGGGGGGGGGGGGGGGGGG",
"GGxGGGGGGGGGGGGGGGGGGGGGGGGGGGGGGGGGGG'{'!!{D{t`tytt`QwQE00EEO@777ywwuuuwwsd#s   ow##79p0  oo*o*GGGGGGGGGGGGGGGGGGGGGGGGGGGGGGGG",
"GGxGGGGGGGGGGGGGGGGGGGGGGGGGGGGGGGGGGGQ{07y#tW!t`yttEwwQEq0EqO677667wtiyewsuwp  wy###yEf]!6u@{o*GGGGGGGGGGGGGGGGGGGGGGGGGGGGGGGG",
"GGxGGGGGGGGGGGGGGGGGGGGGGGGGGGGGGGGGGQ`09``E0tt`'y6070000060qq@776677rytrwspuu#   ##wpwW''!'9QoGGGGGGGGGGGGGGGGGGGGGGGGGGGGGGGGG",
"GGxGGGGGGGGGGGGGGGGGGGGGGGGGGGGGGGGGGQ79Qy'yq0qwEy9t9t6970600q676766Oeuss6sr66u   wyyqy!{{'`WW{GGGGGGGGGGGGGGGGGGGGGGGGGGGGGGGGG",
"GGxGGGGGGGGGGGGGGGGGGGG   +767GGGGGGGQ!WE`y`!Wq0=wypWEw67w76qq07O@667O6977sssssss  w pwqW']'WQQGGGuGGGGGGGGGGGGGGGGGGGGGGGGGGGGG",
"GGxGGGGGGGGGGGGGGGGGGG  oooo6777GGGGG@@5@7W`y!W=nyypEWtw9t66qQE0OOO67O77669sypsss#y*pyyw*7E{QQWFGGGGGGGGGGGGGGGGGGGGGGGGGGGGGGGG",
"GGxGGGGGGGGGGGGGGGGGG ooooooo+577GGGG  o+ y9`!ynsyyp9qrQEy6OOQWE6OO67@6666sy7ey79@o@*pp*667!'!WqcGGGGGGGGGGGGGGGGGGGGGGGGGGGGGGG",
"GGxGGGGGGGGGGGGGGGGG ooooooooo+O77GG  o+59 @0!ysayyp99raQy6@O99@OO66666776ywwwwyQ0877777766EQ'!Eq`GGGGGGGGGGGGGGGGGGGGGGGGGGGGGG",
"GGxGGGGGGGGGGGGGGGGGooooooooooo  +6ooO+895++ 0ysayypE9rasy66@O66Oo67O666OOOoooO9`E9WQWEq0787E``QWWGGGGGGGGGGGGGGGGGGGGGGGGGGGGGG",
"GGxGGGGGGGGGGGGGGGGooooooooooooo O+++OOO5+o   yaayypE0rasy76@OOOOOOOO6OOOoooOO6``W0Q``!QWq077E``QEWGGGGGGGGGGGGGGGGGGGGGGGGGGGGG",
"GGxGGGGGGGGGGGGGGGGooooooooooooooooo+O@O+o    yaayypEqrasy7@OOOoOOOo6OOoOooO668`!E0WQ!!!QWE090W'`WEQGGGGGGGGGGGGGGGGGGGGGGGGGGGG",
"GGxGGGGGGGGGGGGGGGGooooooooooooooo oo +OOo o  yaayypEqrasy06OOOOOooO@OoooOO678W`W09EWWWQQWWWEWEEEqq9qWGGGGGGGGGGGGGGGGGGGGGGGGGG",
"GGxGGGGGGGGGGGGGGGGooooooooooooooo      oO    yaayypQEeasyq7@OOooooOOooOO6670W`'E080EEEEWWW!WEQEqq0SFbqWGGGGGGGGGGGGGGGGGGGGGGGG",
"GGxGGGGGGGGGGGGGGGGoooooooooooooooo           yaayypQEeysyq07OOOooo ooO66670E!]]E080qEEEEEWQQWWWq00SFbqqWGGGGGGGGGGGGGGGGGGGGGGG",
"GGxGGGGGGGGGGGGGGGGoooooooooooooooo           yayyypwweysyq966OOOo   O6770q0E!']q007WWWEEqEQQWEQk0vS~Zb^FWGGGGGGGGGGGGGGGGGGGGGG",
"GGxGGGGGGGGGGGGGGGGoooooooooooooooo           yayyypwweysy06666@Oo   O70qEq0qW!!EWQQQ!QWEEqWQQEEklklCbZ^)Z~GGGGGGGGGGGGGGGGGGGGG",
"GGxGGGGGGGGGGGGGGGGG oooooooooooooo           yayyyp**erur766676Oo   o8000090EQ!`]'WQQ!!QWEWWWEqWl<kjcb~~FF)GGGGGGGGGGGGGGGGGGGG",
"GGxGGGGGGGGGGGGGGGGG oooooooooooooo           yayyyp&&erur977766oo   6899990EWQ!!QWEqEWQQQWWWWWqql,>l>c/^CF_GGGGGGGGGGGGGGGGGGGG",
"GGxGGGGGGGGGGGGGGGGGGooooooooooooooo          yaytyp*&e=rr97766@O   o0qq00qWQ!QQWE09890EWQQQWWWEqkl>>>>c~c/^^GGGGGGGGGGGGGGGGGGG",
"GGxGGGGGGGGGGGGGGGGGGGoooooooooooooo          eaytyp*$e=rr7@@@@Oo   oW'`WEQ!`!QE098778780QQWEWEE`vv>><>c~c/^^GGGGGGGGGGGGGGGGGGG",
"GGxGGGGGGGGGGGGGGGGGGGG ooooooooooooo         eaytyp*$==rr6OOOOO   ooW'QQQ!'QE00777766677qWWEWEEWmvk<j<jFc_/cGGGGGGGGGGGGGGGGGGG",
"GGxGGGGGGGGGGGGGGGGGGGG ooooooooooooo         wyyryp&$==u=OOOOOo  o 6W!QQ`QQ0097@776556669EEEWWE0mmv<cjhvF_FZ[GGGGGGGGGGGGGGGGGG",
"GGxGGGGGGGGGGGGGGGGGGGGGooooooooooo+@        owyyryp#$==u=ooooo     9WQQ`QE097669975@@@56790EW!QWvvmjvc>v/)c/)GGGGGGGGGGGGGGGGGG",
"GGxGGGGGGGGGGGGGGGGGGGGG oooooooo@7@6o      o+wytryp&$==u=ooOOo %*$o7Q'QQ00976670E05@@@@@5680W```mvcllv<v/Fb__GGGGGGGGGGGGGGGGGG",
"GGxGGGGGGGGGGGGGGGGGGGGG ooooo@6876o@o    o+@7wrtryp#$==u=OOOO %%%$ 6'!E0976@6766OX@+@@@@@@69E``Q8mvvlljj(v~__GGGGGGGGGGGGGGGGGG",
"GGxGGGGGGGGGGGGGGGGGGGGGG o+57875@+oo@o  o+O98wrteyp#$&=uwo  GG%$%$ 7!!E77666        o@@@@@570Q!qM;8mblj<>c(_GGGGGGGGGGGGGGGGGGG",
"GGxGGGGGGGGGGGGGGGGGGGGGGO5796@+O+oooo@ OO++@Gwrteyp#$&=uw w$GG%$%$O7QQ07666           o++6780WW9;;876bv>lC~GGGGGGGGGGGGGGGGGGGG",
"GGxGGGGGGGGGGGGGGGGGGGGGG96@@+oooooooo6+O++6GGwrtwyp#$&=uwGw$GG%$%$&6W9766               o+698Eq0G85656FccSGGGGGGGGGGGGGGGGGGGGG",
"GGxGGGGGGGGGGGGGGGGGGGGGG++ooooooooooo6o++GGGGwrtwyp#$&=uwGw$GG%$%$&G9776        #     ...Oo 0q0GGGGGGGGGGGGGGGGGGGGGGGGGGGGGGGG",
"GGxGGGGGGGGGGGGGGGGGGGGGGG ooooooooooo6o+GGGGGwrt=yp#$&=uwGw$GG%$%$&G666      O56666666666o  090GGGGGGGGGGGGGGGGGGGGGGGGGGGGGGGG",
"GGxGGGGGGGGGGGGGGGGGGGGGGGGooooooooooo8oGGGGGGwrt=yp#$&=twGw$GG%$$$&&w6      O@@+6o      .6+.880GGGGGGGGGGGGGGGGGGGGGGGGGGGGGGGG",
"GGxGGGGGGGGGGGGGGGGGGGGGGGGG ooooooooo@ GGGGGG=rt=yp#$&=twww$GG%$$$*&wG6    +75o @oo       @5o0GGGGGGGGGGGGGGGGGGGGGGGGGGGGGGGGG",
"GGxGGGGGGGGGGGGGGGGGGGGGGGGGGoooooooo8 GGGGGGG=rt=yp#$&=twww$GG#$$$&&ww%  #+86+  Ooo     .  +6GGGGGGGGGGGGGGGGGGGGGGGGGGGGGGGGGG",
"GGxGGGGGGGGGGGGGGGGGGGGGGGGGGGGooooooGGGGGGGGG=rt=yp#$&=twGwww&&$$wwwwGG #+75+ o7o+@Ooooo    .GGGGGGGGGGGGGGGGGGGGGGGGGGGGGGGGGG",
"GGxGGGGGGGGGGGGGGGGGGGGGGGGGGGGGGGGGGGGGGGGGGG=rt=yp#$&=ewGwww&&$$wwww%GG+6+   +9o++OOOOOOO   GGGGGGGGGGGGGGGGGGGGGGGGGGGGGGGGGG",
"GGxGGGGGGGGGGGGGGGGGGGGGGGGGGGGGGGGGGGGGGGGGGG=rt=yp#$&=ewGw$Gww$$wwwwwG+5+ oo+78oOOOOOOOOOOo.GGGGGGGGGGGGGGGGGGGGGGGGGGGGGGGGGG",
"GGxGGGGGGGGGGGGGGGGGGGGGGGGGGGGGGGGGGGGGGGGGGG=rt=yp#$&=ewGw$Gww$$wwwwGG6+X +667oOOOOOOOOOOOOOGGGGGGGGGGGGGGGGGGGGGGGGGGGGGGGGGG",
"GGxGGGGGGGGGGGGGGGGGGGGGGGGGGGGGGGGGGGGGGGGGGG=rt=yp#$&=ewGw$Gww$$$&G%Gw  OO955.OOOOOOOOOOOOOOGGGGGGGGGGGGGGGGGGGGGGGGGGGGGGGGGG",
"GGxGGGGGGGGGGGGGGGGGGGGGGGGGGGGGGGGGGGGGGGGGGG=rt=yp#$&=ewGw$Gww$$$&GwwG  55@+++OOOOOOOOOOOOOOGGGGGGGGGGGGGGGGGGGGGGGGGGGGGGGGGG",
"GGxGGGGGGGGGGGGGGGGGGGGGGGGGGGGGGGGGGGGGGGGGGG=rt=yp#$&==wsw$G&&$$$&wwG% o++++++OOOOO+OOOOOOOOGGGGGGGGGGGGGGGGGGGGGGGGGGGGGGGGGG",
"GGxGGGGGGGGGGGGGGGGGGGGGGGGGGGGGGGGGGGGGGGGGGG=st=yp#$&==wGw$G&&$w$wGwGG o++OOOOOOOOOOOOOOOOOOGGGGGGGGGGGGGGGGGGGGGGGGGGGGGGGGGG",
"GGxGGGGGGGGGGGGGGGGGGGGGGGGGGGGGGGGGGGGGGGGGer=rt=yp#$s==tt=&&&&&&&&&wGGooooooooOOOOOOOOOOOOOoGGGGGGGGGGGGGGGGGGGGGGGGGGGGGGGGGG",
"GGxGGGGGGGGGGGGGGGGGGGGGGGGGGGGGGGGGGGGGGGGGrrses=yp#w&=st==&&&&&&&&&w&GooooooooooooooooooooooGGGGGGGGGGGGGGGGGGGGGGGGGGGGGGGGGG",
"GGxGGGGGGGGGGGGGGGGGGGGGGGGGGGGGGGGGGGGGGGGGsr====yppwst==sw&&&&&&&&&$&&ooooooooooooooooooooooGGGGGGGGGGGGGGGGGGGGGGGGGGGGGGGGGG",
"GGxGGGGGGGGGGGGGGGGGGGGGGGGGGGGGGGGGGGGrrGwwwttuuuuuuuuuutwew&&&&&&&&$&&ooO+ooOOOOOOoooooooooOGGGGGGGGGGGGGGGGGGGGGGGGGGGGGGGGGG",
"GGxGGGGGGGGGGGGGGGGGGGGGGGGGGGGGGGGGeeeeeeeeeeeeeeeeeeeeeettt&&&&&&&&tttoo+79777OOOOOOOooooooGGGGGGGGGGGGGGGGGGGGGGGGGGGGGGGGGGG",
"GGxGGGGGGGGGGGGGGGGGGGGGGGGGGGGGGGGGGGGGGGGGGGGGGGGGGGGGGGGGGGGGGGGGGGGG oooooo+ooooooooooo@@GGGGGGGGGGGGGGGGGGGGGGGGGGGGGGGGGGG",
"GGxGGGGGGGGGGGGGGGGGGGGGGGGGGGGGGGGGGGGGGGGGGGGGGGGGGGGGGGGGGGGGGGGGGGGGGoooooooooooooooooo@GGGGGGGGGGGGGGGGGGGGGGGGGGGGGGGGGGGG",
"GGxGGGGGGGGGGGGGGGGGGGGGGGGGGGGGGGGGGGGGGGGGGGGGGGGGGGGGGGGGGGGGGGGGGGGGGGGGGGGGGGGGGGGGGGGGGGGGGGGGGGGGGGGGGGGGGGGGGGGGGGGGGGGG",
"GGxGGGGGGGGGGGGGGGGGGGGGGGGGGGGGGGGGGGGGGGGGGGGGGGGGGGGGGGGGGGGGGGGGGGGGGGGGGGGGGGGGGGGGGGGGGGGGGGGGGGGGGGGGGGGGGGGGGGGGGGGGGGGG"
};
