/* XPM */
static char *result[] = {
/* columns rows colors chars-per-pixel */
"64 64 80 1 ",
"  c #980088",
". c #880000",
"X c #282828",
"o c gray22",
"O c black",
"+ c #B00000",
"@ c #202020",
"# c #484848",
"$ c #500000",
"% c #E80000",
"& c #F05050",
"* c #600000",
"= c #800000",
"- c #980000",
"; c #606060",
": c #F8F850",
"> c #C80000",
", c #F8A070",
"< c #F8B898",
"1 c #008080",
"2 c #78F8F8",
"3 c #888888",
"4 c gray47",
"5 c #004040",
"6 c #005858",
"7 c #D8D8D8",
"8 c #885830",
"9 c #584020",
"0 c gray69",
"q c gray66",
"w c #F80000",
"e c gray44",
"r c #F8C8B0",
"t c #F8B890",
"y c #D08050",
"u c #A06038",
"i c #986038",
"p c #704828",
"a c gray91",
"s c #989898",
"d c #D0D0D0",
"f c #F8F8F8",
"g c #D00000",
"h c gray25",
"j c #B07040",
"k c #F89860",
"l c #E88858",
"z c #F8B080",
"x c gray19",
"c c #F8D0B8",
"v c #F8C0A0",
"b c #905830",
"n c #A00000",
"m c #C87848",
"M c #00E0E0",
"N c #007070",
"B c #505050",
"V c #400000",
"C c #F8E0D0",
"Z c #F09058",
"A c #A86840",
"S c #805028",
"D c #684820",
"F c #00C8C8",
"G c #B8F8F8",
"H c #700000",
"J c #C0C0C0",
"K c #E00000",
"L c #B80000",
"P c #A8A800",
"I c #E0E000",
"U c #C0C000",
"Y c #F8F800",
"T c #480000",
"R c #F8E8D8",
"E c #483818",
"W c #403018",
"Q c #282008",
"! c #382810",
"~ c #503818",
/* pixels */
"                                                                ",
"                  .         XXXXoXOOO                           ",
"                  +       @XXXXX#XOOOOO                         ",
"                  +      @X$$$Xo#XOOOOOO                        ",
"              %. +&+  **@@=---=o;XOOOOOOO                       ",
"              .&++:&+*%*@>,><><#;oO;O;O#OO  12111               ",
"               +&<33&%*@@X$$$$##4#OOOOOOOO 15@#X@6              ",
"              **&37;3&**@O8&89#40#O9888oOO15@#q;X@5             ",
"           ++%w&:3;e3:&&++,r,&t,y8;3;,uoOe15@#;#X@5             ",
"             .**+&33&w**#Oi,%$%up;a,a;sddfO65@XX@5g.            ",
"            -g. +&:&w&+ehOj&kllzk3,r,3s0saO 55555 .g$           ",
"            +* + w<w ++*xOj&cvvzv;a,a;boOeO  1 5   n$           ",
"            .$+  w&w  *+xOu&zzyu88;3;mboO@O  M N  *$$           ",
"  #eqBo     $VVV C&w  #*xO8&,uZ,Z,ZjuuAoOOO  M 1 **V$    XXXXX  ",
"   @X;;#=>   VVV1C+1N #xxOS&,usd7dsj,yDoOOO@1MN1NVVV =#XXXXX@   ",
"    @@oooo=-> VFC,C,CN@@@Ob&,ue*$*ej,uAoOOOFGFFFGNVV;=XX@@@@    ",
"    @@@@@@@o@@@1&&&&&66OOO8&,j*-H-*j,u8oOOx66666656s$=$@OOOO    ",
"   @@#@@@OOOOO@x.....55@@@o%yjJd7dJjiooOOOx5555555X@$>$O@O@OO   ",
" B@o;o@@@@@@O@x*H.H.H*x@@@@@oo#i8i#ooOOOO@xxx5x5xx@@=w=@@@O@O@@ ",
" @q;o@@X@@@@O@XX*HHH*XXX@O@@@@@@OOOOOOOO@XXXXXXXXXXO-&-@@@@O@@@ ",
"  @e#Xo@@@@@O@XxxxxxX*XXXX@OOOOOOOOOOO@xxxXXXXXXXXXO+&>@@@@@@@  ",
"  O@oooBBBBB#ox;;B#xHHxxxxx5xxx@q;B#hhhxxxxxxx=xxxB.K&K.o@X@@-  ",
" HOOO;Bo@www@@oo@@*-@@@@@@@@@@@OXX@@@@@@@@@@@@K=;Bo+K&K+@oo=-O  ",
"  ..4o@@&*O*&@@@@-+*@@@@@@@@@@OOXX@@@@@@@@@@@@@KL@@K&,&K@=L&-X  ",
"  .+g.@@,OOO,@@*-g-@@@@@@@@@@@OOXX@@@@@@@@@@@@;LKL+K&P&KLw&L-X  ",
"  B.>&&..*O*H*>g&-*@@@@@@@@@@@OOXXX@@@@@@@@@@BK,K&w&&I&&&&&L@@  ",
"  B<.&,&+>>>>>&,&.@@@@@@@@@@@@OOXXX@@@@@@@@@@B,LKw&,,I,,&&L-&@  ",
" Bo&.g&U,&gg&,I&-&@O@@@@@@@@@OOOXXX@@@@@@@@@Bo,OKK,PIcIP,&K>,@O ",
" Bo&5+&,YUPPUI,>.&@O@@@@@@@@@OOTTXX@@@@@@@@@LLKK&&,IcRcI,&&K=@O ",
" Bo@,.-,UIIIIU,-,@@OOOOOOOOOOOOT*XXOOT*==+>>&&&,PIIcRRRcIP,&&n= ",
" Bo@..&,IIRRIII,&&-.HHH$VVOOOOTH**OOOOOOOOOO*.KK&&,IcRcI,&&K>@O ",
" .--&&,PUIRRIU,...@OTTTTTTTTTT*....*TTTTVVVVB@$KKw,PIcIP,&K>@@O ",
" B@,..%,PIIIIP,.,&@OTT**-LLwL--...====*TVVTTB@,$K&&,,I,,&&&*,@O ",
" B@&O.&,I,,&,I,..&@OOTT*H-wL-w-....=.=**V*TTB@,=&&&w&I&w&&&+,@O ",
"  @>*g&I,wwww,U&.&Oo###XoBeBoX@@@@@@@@@@@@O##@&K&&$K&P&K,*+K*O  ",
"  @@-&,&-.O%.-&,&.OXXXo#4sXX@@@@@@@@@@@@q4#XX@T.K$@,&,&>@,&*+O  ",
"   --&&.,OOO,@.&&-.XXXXo;OOOOOOOOOOOOOO4q;XXXX.T@@@,&,&,@@@@O   ",
"   >>.-@&*O*&@@@..-.OXo#OOOO@@@@@@@@@@B#o4#oXOO@@@@&w,w&@@@O    ",
"   >>@@@@>>=@@OO@@.=VOOOOOOO@@@@@@@@@@#XXoOOO@@@@@@@w&w@@OO     ",
"  >   pEOOOOOW@@@@X*=@@@OOOOO@@@@@@@@#XXXO@@@XX@@@pE+&+OOW      ",
"      llDDDEEW@@@XXo#@OOOOOOOOOOOOOOOXXX@O@BXoX@@@ll.w.EEW      ",
"      @155555@@@@Xxo@OOOOOOOOOOOOOOOX@@@O@X4X#oX@@@1-g-55       ",
"      @@O@X@@@@@XXx@OOOOOOOOOOOOOOOO@@@O@@X;BBoXX@@@@LOO        ",
"     @XoO@X@@@@@XoX@OOOOOOOOOOOOOOOOOOO@@@X#o;ooX@@@@-@O        ",
"     @Xoo@@@@@@@Xx@OOOOOOOOOO      OO@O@@@XoX4o#X@@@@$@O@       ",
"      @@oo@@@@@XXX@OOOOOOO         OOO@@@X@XX;BBX@=-w-=ooo      ",
"      OOXo##ooXX@@@XXXX@OO          OO@@@@@XXdr4;&,&<&g-*OO     ",
"     @OOOOX#BB;;;;4BXX@@@             @@@@X;44o@@@@@@@@@@OO     ",
"     @XoOO@@@@@@@oo@OOOO@              @@;;oOOOOOOOOOOOOOO      ",
"     @@@oXOOOOOOOOOOOOOO               @;oOOOOOOOOOOOOOOOO      ",
"      OO@oooXOOOOOOXXX@@                OOOo;;d;;BBB###oo@@     ",
"       OOOo##BBB;#oX@@@                  Oo;##oooooo@@@@@@@     ",
"       @OOOOOOOOOOOOOO                   OoOOOOOOOOOOOOOOO      ",
"       @@O@@@@XX@OOOOO                     O@@BXoB4XOOOOOO      ",
"        @@O@@@@X@OOOO                      O@@#@XoBOOOOOOO      ",
"        OOOOOOOOOOOOOO                      O@o#XooOOOOOO       ",
"        @@XXXXX@@@@OOO                      O@@o@XoOOOOOO       ",
"       OOOOOOOOOOOOOOO                       O@@oXXOOOOOO       ",
"      ooXXXXXX@@@XX@OO                       OO@@XB4Boo@O       ",
"      XX@@@@@@@@@@@XOQQ!!WWEE               OO@o###ooooooX      ",
"      @@OOOOOOO@@OO@OQQQQQQQQ!WEEEEEEEEWW!!OOXoooXXXXXXXXXX     ",
"      OOOOOOOOOOOOOOQQQQQQQQQQQQQQQQQQQQQQQOOoXXXX@@@@@@@@@@    ",
"            DDD~~EEWWWWW!!!!!QQQQQQQQQQQQQQQO@@@@@OOOOOOOO@@    ",
"                        pp~~~~EEEEEEEEEEEWW!!OOOOOOOOOOOOOOO    "
};
