/* XPM */
static char *result[] = {
/* columns rows colors chars-per-pixel */
"128 128 20 1 ",
"  c black",
". c gray11",
"X c #202020",
"o c #282828",
"O c #2C2C2C",
"+ c gray19",
"@ c #343434",
"# c gray22",
"$ c gray25",
"% c #484848",
"& c #4C4C4C",
"* c gray33",
"= c gray36",
"- c #646464",
"; c gray44",
": c #7C7C7C",
"> c gray55",
", c #989898",
"< c gray66",
"1 c None",
/* pixels */
"11111111111111111111111111111111111111111111111111111111111111111111111111111111111111111111111111111111111111111111111111111111",
"11111111111111111111111111111111111111111111111111111111111111111111111111111111111111111111111111111111111111111111111111111111",
"11111111111111111111111111111111111111111111111111111111111111111111111111111111111111111111111111111111111111111111111111111111",
"11111111111111111111111111111111111111111111111111111111111111111111111111111111111111111111111111111111111111111111111111111111",
"11111111111111111111111111111111111111111111111111111111111111111111111111111111111111111111111111111111111111111111111111111111",
"11111111111111111111111111111111111111111111111111111111111111111111111111111111111111111111111111111111111111111111111111111111",
"11111111111111111111111111111111111111111111111111111111111111111111111111111111111111111111111111111111111111111111111111111111",
"11111111111111111111111111111111111111111111111111111111111111111111111111111111111111111111111111111111111111111111111111111111",
"11111111111111111111111111111111111111111111111111111111111111111111111111111111111111111111111111111111111111111111111111111111",
"11111111111111111111111111111111111111111111111111111111111111111111111111111111111111111111111111111111111111111111111111111111",
"11111111111111111111111111111111111111111111111111111111111111111111111111111111111111111111111111111111111111111111111111111111",
"11111111111111111111111111111111111111111111111111111111111111111111111111111111111111111111111111111111111111111111111111111111",
"11111111111111111111111111111111111111111111111111111111111111111111111111111111111111111111111111111111111111111111111111111111",
"11111111111111111111111111111111111111111111111111111111111111111111111111111111111111111111111111111111111111111111111111111111",
"11111111111111111111111111111111111111111111111111111111111111111111111111111111111111111111111111111111111111111111111111111111",
"11111111111111111111111111111111111111111111111111111111111111111111111111111111111111111111111111111111111111111111111111111111",
"11111111111111111111111111111111111111111111111111111111111111111111111111111111111111111111111111111111111111111111111111111111",
"11111111111111111111111111111111111111111111111111111111111111111111111111111111111111111111111111111111111111111111111111111111",
"11111111111111111111111111111111111111111111111111111111111111111111111111111111111111111111111111111111111111111111111111111111",
"11111111111111111111111111111111111111111111111111111111111111111111111111111111111111111111111111111111111111111111111111111111",
"11111111111111111111111111111111111111111111111111111111111111111111111111111111111111111111111111111111111111111111111111111111",
"11111111111111111111111111111111111111111111111111111111111111111111111111111111111111111111111111111111111111111111111111111111",
"11111111111111111111111111111111111111111111111111111111111111111111111111111111111111111111111111111111111111111111111111111111",
"11111111111111111111111111111111111111111111111111111111111111111111111111111111111111111111111111111111111111111111111111111111",
"11111111111111111111111111111111111111111111111111111111111111111111111111111111111111111111111111111111111111111111111111111111",
"11111111111111111111111111111111111111111111111111111111111111111111111111111111111111111111111111111111111111111111111111111111",
"11111111111111111111111111111111111111111111111111111111111111111111111111111111111111111111111111111111111111111111111111111111",
"11111111111111111111111111111111111111111111111111111111111111111111111111111111111111111111111111111111111111111111111111111111",
"11111111111111111111111111111111111111111111111111111111111111111111111111111111111111111111111111111111111111111111111111111111",
"11111111111111111111111111111111111111111111111111111111111111111111111111111111111111111111111111111111111111111111111111111111",
"11111111111111111111111111111111111111111111111111111111111111111111111111111111111111111111111111111111111111111111111111111111",
"11111111111111111111111111111111111111111111111111111111111111111111111111111111111111111111111111111111111111111111111111111111",
"11111111111111111111111111111111111111111111111111111111111111111111111111111111111111111111111111111111111111111111111111111111",
"11111111111111111111111111111111111111111111111111111111111111111111111111111111111111111111111111111111111111111111111111111111",
"11111111111111111111111111111111111111111111111111111111111111111111111111111111111111111111111111111111111111111111111111111111",
"11111111111111111111111111111111111111111111111111111111111111111111111111111111111111111111111111111111111111111111111111111111",
"11111111111111111111111111111111111111111111111111111111111111111111111111111111111111111111111111111111111111111111111111111111",
"11111111111111111111111111111111111111111111111111111111111111111111111111111111111111111111111111111111111111111111111111111111",
"11111111111111111111111111111111111111111111111111111111111111111111111111111111111111111111111111111111111111111111111111111111",
"11111111111111111111111111111111111111111111111111111111111111111111111111111111111111111111111111111111111111111111111111111111",
"11111111111111111111111111111111111111111111111111111111111111111111111111111111111111111111111111111111111111111111111111111111",
"11111111111111111111111111111111111111111111111111111111111111111111111111111111111111111111111111111111111111111111111111111111",
"11111111111111111111111111111111111111111111111111111111111111111111111111111111111111111111111111111111111111111111111111111111",
"11111111111111111111111111111111111111111111111111111111111111111111111111111111111111111111111111111111111111111111111111111111",
"11111111111111111111111111111111111111111111111111111111111111111111111111111111111111111111111111111111111111111111111111111111",
"11111111111111111111111111111111111111111111111111111111111111111111111111111111111111111111111111111111111111111111111111111111",
"11111111111111111111111111111111111111111111111111111111111111111111111111111111111111111111111111111111111111111111111111111111",
"11111111111111111111111111111111111111111111111111111111111111111111111111111111111111111111111111111111111111111111111111111111",
"11111111111111111111111111111111111111111111111111111111111111111111111111111111111111111111111111111111111111111111111111111111",
"11111111111111111111111111111111111111111111111111111111111111111111111111111111111111111111111111111111111111111111111111111111",
"11111111111111111111111111111111111111111111111111111111111111111111111111111111111111111111111111111111111111111111111111111111",
"11111111111111111111111111111111111111111111111111111111111111111111111111111111111111111111111111111111111111111111111111111111",
"11111111111111111111111111111111111111111111111111111111111111111111111111111111111111111111111111111111111111111111111111111111",
"11111111111111111111111111111111111111111111111111111111111111111111111111111111111111111111111111111111111111111111111111111111",
"11111111111111111111111111111111111111111111111111111111111111111111111111111111111111111111111111111111111111111111111111111111",
"11111111111111111111111111111111111111111111111111111111111111111111111111111111111111111111111111111111111111111111111111111111",
"11111111111111111111111111111111111111111111111111111111111111111111111111111111111111111111111111111111111111111111111111111111",
"11111111111111111111111111111111111111111111111111111111111111111111111111111111111111111111111111111111111111111111111111111111",
"11111111111111111111111111111111111111111111111111111111111111111111111111111111111111111111111111111111111111111111111111111111",
"11111111111111111111111111111111111111111111111111111111111111111111111111111111111111111111111111111111111111111111111111111111",
"11111111111111111111111111111111111111111111111111111111111111111111111111111111111111111111111111111111111111111111111111111111",
"11111111111111111111111111111111111111111111111111111111111111111111111111111111111111111111111111111111111111111111111111111111",
"11111111111111111111111111111111111111111111111111111111111111111111111111111111111111111111111111111111111111111111111111111111",
"11111111111111111111111111111111111111111111111111111111111111111111111111111111111111111111111111111111111111111111111111111111",
"11111111111111111111111111111111111111111111111111111111111111111111111111111111111111111111111111111111111111111111111111111111",
"11111111111111111111111111111111111111111111111111111111111111111111111111111111111111111111111111111111111111111111111111111111",
"11111111111111111111111111111111111111111111111111111111111111111111111111111111111111111111111111111111111111111111111111111111",
"11111111111111111111111111111111111111111111111111111111111111111111111111111111111111111111111111111111111111111111111111111111",
"11111111111111111111111111111111111111111111111111111111111111111111111111111111111111111111111111111111111111111111111111111111",
"11111111111111111111111111111111111111111111111111111111111111111111111111111111111111111111111111111111111111111111111111111111",
"11111111111111111111111111111111111111111111111111111111111111111111111111111111111111111111111111111111111111111111111111111111",
"11111111111111111111111111111111111111111111111111111111111111111111111111111111111111111111111111111111111111111111111111111111",
"11111111111111111111111111111111111111111111111111111111111111111111111111111111111111111111111111111111111111111111111111111111",
"11111111111111111111111111111111111111111111111111111111111111111111111111111111111111111111111111111111111111111111111111111111",
"111111111111111111111111111111111111111111111111111111111111111111111111..111111111111111111111111111111111111111111111111111111",
"111111111111111111111111111111111111111111111111111111111111111111111111..111111111111111111111111111111111111111111111111111111",
"1111111111111111111111111111111111111111111111111111111111111111111111@@......oo111111111111111111111111111111111111111111111111",
"1111111111111111111111111111111111111111111111111111111111111111111111@@......oo111111111111111111111111111111111111111111111111",
"11111111111111111111111111111111111111111111111111111111111111111111--==OO..--....1111111111111111111111111111111111111111111111",
"11111111111111111111111111111111111111111111111111111111111111111111--==OO..--....1111111111111111111111111111111111111111111111",
"1111111111111111111111111111111111111111111111111111111111111111111111--**OOXX....XXXX..oo..  1111111111111111111111111111111111",
"1111111111111111111111111111111111111111111111111111111111111111111111--**OOXX....XXXX..oo..  1111111111111111111111111111111111",
"1111111111111111111111111111111111111111111111111111111111111111111111;;==**oo..==oooo++OO..$$..11111111111111111111111111111111",
"1111111111111111111111111111111111111111111111111111111111111111111111;;==**oo..==oooo++OO..$$..11111111111111111111111111111111",
"1111111111111111111111111111111111111111111111111111111111111111111111,,==**..XX$$XX    ....##..11111111111111111111111111111111",
"1111111111111111111111111111111111111111111111111111111111111111111111,,==**..XX$$XX    ....##..11111111111111111111111111111111",
"1111111111111111111111111111111111111111111111111111111111111111111111<<..::**OOXX..oo%%..OOOO  11111111111111111111111111111111",
"1111111111111111111111111111111111111111111111111111111111111111111111<<..::**OOXX..oo%%..OOOO  11111111111111111111111111111111",
"1111111111111111111111111111111111111111111111111111111111111111111111..oo----++%%**......XXXX1111111111111111111111111111111111",
"1111111111111111111111111111111111111111111111111111111111111111111111..oo----++%%**......XXXX1111111111111111111111111111111111",
"1111111111111111111111111111111111111111111111111111111111111111111111@@oo--;;**--XX..........XX11111111111111111111111111111111",
"1111111111111111111111111111111111111111111111111111111111111111111111@@oo--;;**--XX..........XX11111111111111111111111111111111",
"11111111111111111111111111111111111111111111111111111111111111111111++++::------XX....    ......11111111111111111111111111111111",
"11111111111111111111111111111111111111111111111111111111111111111111++++::------XX....    ......11111111111111111111111111111111",
"111111111111111111111111111111111111111111111111111111111111111111++@@++oo;;--;;........XX......11111111111111111111111111111111",
"111111111111111111111111111111111111111111111111111111111111111111++@@++oo;;--;;........XX......11111111111111111111111111111111",
"1111111111111111111111111111111111111111111111111111111111111111XXoo++$$oo--;;........  XX........111111111111111111111111111111",
"1111111111111111111111111111111111111111111111111111111111111111XXoo++$$oo--;;........  XX........111111111111111111111111111111",
"1111111111111111111111111111111111111111111111111111111111111111##++..$$++--;;XXXX..........==..##111111111111111111111111111111",
"1111111111111111111111111111111111111111111111111111111111111111##++..$$++--;;XXXX..........==..##111111111111111111111111111111",
"111111111111111111111111111111111111111111111111111111111111111111..**%%##**;;;;ooXXXXXXXXooXX..@@..1111111111111111111111111111",
"111111111111111111111111111111111111111111111111111111111111111111..**%%##**;;;;ooXXXXXXXXooXX..@@..1111111111111111111111111111",
"1111111111111111111111111111111111111111111111111111111111111111    $$%%%%##::;;##XXXXXXXXXX....@@XX1111111111111111111111111111",
"1111111111111111111111111111111111111111111111111111111111111111    $$%%%%##::;;##XXXXXXXXXX....@@XX1111111111111111111111111111",
"111111111111111111111111111111111111111111111111111111111111..    ..==****$$;;>>XX..............@@@@1111111111111111111111111111",
"111111111111111111111111111111111111111111111111111111111111..    ..==****$$;;>>XX..............@@@@1111111111111111111111111111",
"111111111111111111111111111111111111111111111111111111==@@oo....  ....%%**%%--;;............%%..##@@..11111111111111111111111111",
"111111111111111111111111111111111111111111111111111111==@@oo....  ....%%**%%--;;............%%..##@@..11111111111111111111111111",
"111111111111111111111111111111111111111111111111111111%%##oo......  ......$$;;::XX          ++..##@@##11111111111111111111111111",
"111111111111111111111111111111111111111111111111111111%%##oo......  ......$$;;::XX          ++..##@@##11111111111111111111111111",
"11111111111111111111111111111111111111111111111111--%%$$##OOXX......  ####++**>>....XX......++@@@@@@@@..111111111111111111111111",
"11111111111111111111111111111111111111111111111111--%%$$##OOXX......  ####++**>>....XX......++@@@@@@@@..111111111111111111111111",
"111111111111111111111111111111111111111111111111;;==%%##OOooXX......%%$$$$++++##::$$######$$$$##$$$$##..111111111111111111111111",
"111111111111111111111111111111111111111111111111;;==%%##OOooXX......%%$$$$++++##::$$######$$$$##$$$$##..111111111111111111111111",
"111111111111111111111111111111111111111111111111==**%%##ooXX......XX....oo..  ..::          ..    ..##@@111111111111111111111111",
"111111111111111111111111111111111111111111111111==**%%##ooXX......XX....oo..  ..::          ..    ..##@@111111111111111111111111",
"1111111111111111111111111111111111111111111111--==%%$$OOOOXXXX......XXXX11..OO==;;......XX....XXOO%%@@@@..1111111111111111111111",
"1111111111111111111111111111111111111111111111--==%%$$OOOOXXXX......XXXX11..OO==;;......XX....XXOO%%@@@@..1111111111111111111111",
"1111111111111111111111111111111111111111111111--**$$++OOXXXXXX............**OO..;;............XXXXOO@@@@@@1111111111111111111111",
"1111111111111111111111111111111111111111111111--**$$++OOXXXXXX............**OO..;;............XXXXOO@@@@@@1111111111111111111111",
"11111111111111111111111111111111111111111111--****&&++OOooXXXX..........11--%%XX--  XXXX....XXXXXXoo@@##@@..11111111111111111111",
"11111111111111111111111111111111111111111111--****&&++OOooXXXX..........11--%%XX--  XXXX....XXXXXXoo@@##@@..11111111111111111111",
"11111111111111111111111111111111111111111111&&%%##@@@@OOXXXX..XX......XX11;;==;;--::XX....XX....XXXXOO@@##..11111111111111111111",
"11111111111111111111111111111111111111111111&&%%##@@@@OOXXXX..XX......XX11;;==;;--::XX....XX....XXXXOO@@##..11111111111111111111",
"111111111111111111111111111111111111111111%%%%$$##++OO@@XX....XX......XX11--oo##XX==..XXXX..XX....XXXXOO@@##..111111111111111111",
"111111111111111111111111111111111111111111%%%%$$##++OO@@XX....XX......XX11--oo##XX==..XXXX..XX....XXXXOO@@##..111111111111111111",
"111111111111111111111111111111111111111111&&&&$$++++OOOOoo........XX..1111**::XXoo==..XXXXXXXXXX..XXXXOO++@@@@..1111111111111111",
"111111111111111111111111111111111111111111&&&&$$++++OOOOoo........XX..1111**::XXoo==..XXXXXXXXXX..XXXXOO++@@@@..1111111111111111"
};
