/* XPM */
static char *result[] = {
/* columns rows colors chars-per-pixel */
"128 128 34 1 ",
"  c black",
". c gray11",
"X c #202020",
"o c #282828",
"O c #2C2C2C",
"+ c gray19",
"@ c #343434",
"# c gray22",
"$ c gray25",
"% c #484848",
"& c #4C4C4C",
"* c gray33",
"= c gray36",
"- c #646464",
"; c gray44",
": c #7C7C7C",
"> c #980000",
", c #A80000",
"< c #B00000",
"1 c #C80000",
"2 c #FC0000",
"3 c #FC2020",
"4 c #FC4040",
"5 c #FC5454",
"6 c #FC5C5C",
"7 c #FCFC54",
"8 c gray55",
"9 c #989898",
"0 c gray66",
"q c #FC9C9C",
"w c #FCB8B8",
"e c #FCD8D8",
"r c gray99",
"t c None",
/* pixels */
"tttttttttttttttttttttttttttttttttttttttttttttttttttttttttttttttttttttttttttttttttttttttttttttttttttttttttttttttttttttttttttttttt",
"tttttttttttttttttttttttttttttttttttttttttttttttttttttttttttttttttttttttttttttttttttttttttttttttttttttttttttttttttttttttttttttttt",
"tttttttttttttttttttttttttttttttttttttttttttttttttttttttttttttttttttttttttttttttttttttttttttttttttttttttttttttttttttttttttttttttt",
"tttttttttttttttttttttttttttttttttttttttttttttttttttttttttttttttttttttttttttttttttttttttttttttttttttttttttttttttttttttttttttttttt",
"tttttttttttttttttttttttttttttttttttttttttttttttttttttttttttttttttttttttttttttttttttttttttttttttttttttttttttttttttttttttttttttttt",
"tttttttttttttttttttttttttttttttttttttttttttttttttttttttttttttttttttttttttttttttttttttttttttttttttttttttttttttttttttttttttttttttt",
"tttttttttttttttttttttttttttttttttttttttttttttttttttttttttttttttttttttttttttttttttttttttttttttttttttttttttttttttttttttttttttttttt",
"tttttttttttttttttttttttttttttttttttttttttttttttttttttttttttttttttttttttttttttttttttttttttttttttttttttttttttttttttttttttttttttttt",
"tttttttttttttttttttttttttttttttttttttttttttttttttttttttttttttttttttttttttttttttttttttttttttttttttttttttttttttttttttttttttttttttt",
"tttttttttttttttttttttttttttttttttttttttttttttttttttttttttttttttttttttttttttttttttttttttttttttttttttttttttttttttttttttttttttttttt",
"tttttttttttttttttttttttttttttttttttttttttttttttttttttttttttttttttttttttttttttttttttttttttttttttttttttttttttttttttttttttttttttttt",
"tttttttttttttttttttttttttttttttttttttttttttttttttttttttttttttttttttttttttttttttttttttttttttttttttttttttttttttttttttttttttttttttt",
"tttttttttttttttttttttttttttttttttttttttttttttttttttttttttttttttttttttttttttttttttttttttttttttttttttttttttttttttttttttttttttttttt",
"tttttttttttttttttttttttttttttttttttttttttttttttttttttttttttttttttttttttttttttttttttttttttttttttttttttttttttttttttttttttttttttttt",
"tttttttttttttttttttttttttttttttttttttttttttttttttttttttttttttttttttttttttttttttttttttttttttttttttttttttttttttttttttttttttttttttt",
"tttttttttttttttttttttttttttttttttttttttttttttttttttttttttttttttttttttttttttttttttttttttttttttttttttttttttttttttttttttttttttttttt",
"tttttttttttttttttttttttttttttttttttttttttttttttttttttttttttttttttttttttttttttttttttttttttttttttttttttttttttttttttttttttttttttttt",
"tttttttttttttttttttttttttttttttttttttttttttttttttttttttttttttttttttttttttttttttttttttttttttttttttttttttttttttttttttttttttttttttt",
"tttttttttttttttttttttttttttttttttttttttttttttttttttttttttttttttttttttttttttttttttttttttttttttttttttttttttttttttttttttttttttttttt",
"tttttttttttttttttttttttttttttttttttttttttttttttttttttttttttttttttttttttttttttttttttttttttttttttttttttttttttttttttttttttttttttttt",
"tttttttttttttttttttttttttttttttttttttttttttttttttttttttttttttttttttttttttttttttttttttttttttttttttttttttttttttttttttttttttttttttt",
"tttttttttttttttttttttttttttttttttttttttttttttttttttttttttttttttttttttttttttttttttttttttttttttttttttttttttttttttttttttttttttttttt",
"tttttttttttttttttttttttttttttttttttttttttttttttttttttttttttttttttttttttttttttttttttttttttttttttttttttttttttttttttttttttttttttttt",
"tttttttttttttttttttttttttttttttttttttttttttttttttttttttttttttttttttttttttttttttttttttttttttttttttttttttttttttttttttttttttttttttt",
"tttttttttttttttttttttttttttttttttttttttttttttttttttttttttttttttttttttttttttttttttttttttttttttttttttttttttttttttttttttttttttttttt",
"tttttttttttttttttttttttttttttttttttttttttttttttttttttttttttttttttttttttttttttttttttttttttttttttttttttttttttttttttttttttttttttttt",
"tttttttttttttttttttttttttttttttttttttttttttttttttttttttttttttttttttttttttttttttttttttttttttttttttttttttttttttttttttttttttttttttt",
"tttttttttttttttttttttttttttttttttttttttttttttttttttttttttttttttttttttttttttttttttttttttttttttttttttttttttttttttttttttttttttttttt",
"tttttttttttttttttttttttttttttttttttttttttttttttttttttttttttttttttttttttttttttttttttttttttttttttttttttttttttttttttttttttttttttttt",
"tttttttttttttttttttttttttttttttttttttttttttttttttttttttttttttttttttttttttttttttttttttttttttttttttttttttttttttttttttttttttttttttt",
"tttttttttttttttttttttttttttttttttttttttttttttttttttttttttttttttttttttttttttttttttttttttttttttttttttttttttttttttttttttttttttttttt",
"tttttttttttttttttttttttttttttttttttttttttttttttttttttttttttttttttttttttttttttttttttttttttttttttttttttttttttttttttttttttttttttttt",
"tttttttttttttttttttttttttttttttttttttttttttttttttttttttttttttttttttttttttttttttttttttttttttttttttttttttttttttttttttttttttttttttt",
"tttttttttttttttttttttttttttttttttttttttttttttttttttttttttttttttttttttttttttttttttttttttttttttttttttttttttttttttttttttttttttttttt",
"tttttttttttttttttttttttttttttttttttttttttttttttttttttttttttttttttttttttttttttttttttttttttttttttttttttttttttttttttttttttttttttttt",
"tttttttttttttttttttttttttttttttttttttttttttttttttttttttttttttttttttttttttttttttttttttttttttttttttttttttttttttttttttttttttttttttt",
"tttttttttttttttttttttttttttttttttttttttttttttttttttttttttttttttttttttttttttttttttttttttttttttttttttttttttttttttttttttttttttttttt",
"tttttttttttttttttttttttttttttttttttttttttttttttttttttttttttttttttttttttttttttttttttttttttttttttttttttttttttttttttttttttttttttttt",
"tttttttttttttttttttttttttttttttttttttttttttttttttttttttttttttttttttttttttttttttttttttttttttttttttttttttttttttttttttttttttttttttt",
"tttttttttttttttttttttttttttttttttttttttttttttttttttttttttttttttttttttttttttttttttttttttttttttttttttttttttttttttttttttttttttttttt",
"tttttttttttttttttttttttttttttttttttttttttttttttttttttttttttttttttttttttttttttttttttttttttttttttttttttttttttttttttttttttttttttttt",
"tttttttttttttttttttttttttttttttttttttttttttttttttttttttttttttttttttttttttttttttttttttttttttttttttttttttttttttttttttttttttttttttt",
"tttttttttttttttttttttttttttttttttttttttttttttttttttttttttttttttttttttttttttttttttttttttttttttttttttttttttttttttttttttttttttttttt",
"tttttttttttttttttttttttttttttttttttttttttttttttttttttttttttttttttttttttttttttttttttttttttttttttttttttttttttttttttttttttttttttttt",
"tttttttttttttttttttttttttttttttttttttttttttttttttttttttttttttttttttttttttttttttttttttttttttttttttttttttttttttttttttttttttttttttt",
"tttttttttttttttttttttttttttttttttttttttttttttttttttttttttttttttttttttttttttttttttttttttttttttttttttttttttttttttttttttttttttttttt",
"tttttttttttttttttttttttttttttttttttttttttttttttttttttttttttttttttttttttttttttttttttttttttttttttttttttttttttttttttttttttttttttttt",
"tttttttttttttttttttttttttttttttttttttttttttttttttttttttttttttttttttttttttttttttttttttttttttttttttttttttttttttttttttttttttttttttt",
"tttttttttttttttttttttttttttttttttttttttttttttttttttttttttttttttttttttttttttttttttttttttttttttttttttttttttttttttttttttttttttttttt",
"tttttttttttttttttttttttttttttttttttttttttttttttttttttttttttttttttttttttttttttttttttttttttttttttttttttttttttttttttttttttttttttttt",
"tttttttttttttttttttttttttttttttttttttttttttttttttttttttttttttttttttttttttttttttttttttttttttttttttttttttttttttttttttttttttttttttt",
"tttttttttttttttttttttttttttttttttttttttttttttttttttttttttttttttttttttttttttttttttttttttttttttttttttttttttttttttttttttttttttttttt",
"tttttttttttttttttttttttttttttttttttttttttttttttttttttttttttttttttttttttttttttttttttttttttttttttttttttttttttttttttttttttttttttttt",
"tttttttttttttttttttttttttttttttttttttttttttttttttttttttttttttttttttttttttttttttttttttttttttttttttttttttttttttttttttttttttttttttt",
"tttttttttttttttttttttttttttttttttttttttttttttttttttttttttttttttttttttttttttttttttttttttttttttttttttttttttttttttttttttttttttttttt",
"tttttttttttttttttttttttttttttttttttttttttttttttttttttttttttttttttttttttttttttttttttttttttttttttttttttttttttttttttttttttttttttttt",
"tttttttttttttttttttttttttttttttttttttttttttttttttttttttttttttttttttttttttttttttttttttttttttttttttttttttttttttttttttttttttttttttt",
"tttttttttttttttttttttttttttttttttttttttttttttttttttttttttttttttttttttttttttttttttttttttttttttttttttttttttttttttttttttttttttttttt",
"tttttttttttttttttttttttttttttttttttttttttttttttttttttttttttttttttttttttt>>tttttttttttttttttttttttttttttttttttttttttttttttttttttt",
"tttttttttttttttttttttttttttttttttttttttttttttttttttttttttttttttttttttttt>>tttttttttttttttttttttttttttttttttttttttttttttttttttttt",
"tttttttttttttttttttttttttttttttttttttttttttttttttttttttttttttttttttttttt>>tttttttttttttttttttttttttttttttttttttttttttttttttttttt",
"tttttttttttttttttttttttttttttttttttttttttttttttttttttttttttttttttttttttt>>tttttttttttttttttttttttttttttttttttttttttttttttttttttt",
"tttttttttttttttttttttttttttttttttttttttttttttttttttttttttttttttttttttttt22tttttttttttttttttttttttttttttttttttttttttttttttttttttt",
"tttttttttttttttttttttttttttttttttttttttttttttttttttttttttttttttttttttttt22tttttttttttttttttttttttttttttttttttttttttttttttttttttt",
"tttttttttttttttttttttttttttttttttttttttttttttttttttttttttttttttttttttt>>22>>tttt>>>>tttttttttttttttttttttttttttttttttttttttttttt",
"tttttttttttttttttttttttttttttttttttttttttttttttttttttttttttttttttttttt>>22>>tttt>>>>tttttttttttttttttttttttttttttttttttttttttttt",
"tttttttttttttttttttttttttttttttttttttttttttttttttttttttttttttttttttt>><<22<<>>>>,,>>tttttttttttttttttttttttttttttttttttttttttttt",
"tttttttttttttttttttttttttttttttttttttttttttttttttttttttttttttttttttt>><<22<<>>>>,,>>tttttttttttttttttttttttttttttttttttttttttttt",
"tttttttttttttttttttttttttttttttttttttttttttttttttttttttttttt>>>>tttt11332211<<5511tttttttttttttttttttttttttttttttttttttttttttttt",
"tttttttttttttttttttttttttttttttttttttttttttttttttttttttttttt>>>>tttt11332211<<5511tttttttttttttttttttttttttttttttttttttttttttttt",
"tttttttttttttttttttttttttttttttttttttttttttttttttttttttttttt>>111111qq44qq333311>>tttttttttttttttttttttttttttttttttttttttttttttt",
"tttttttttttttttttttttttttttttttttttttttttttttttttttttttttttt>>111111qq44qq333311>>tttttttttttttttttttttttttttttttttttttttttttttt",
"tttttttttttttttttttttttttttttttttttttttttttttttttttttttttttttt115533qqqq7755553322,,,,>>tttttttttttttttttttttttttttttttttttttttt",
"tttttttttttttttttttttttttttttttttttttttttttttttttttttttttttttt115533qqqq7755553322,,,,>>tttttttttttttttttttttttttttttttttttttttt",
"tttttttttttttttttttttttttttttttttttttttttttttttttttttttttttttt>>,,55qq7777qqqq553355,,tttttttttttttttttttttttttttttttttttttttttt",
"tttttttttttttttttttttttttttttttttttttttttttttttttttttttttttttt>>,,55qq7777qqqq553355,,tttttttttttttttttttttttttttttttttttttttttt",
"tttttttttttttttttttttttttttttttttttttttttttttttttttttttttttttt<<11qq77ww77..7755qq1111>>tttttttttttttttttttttttttttttttttttttttt",
"tttttttttttttttttttttttttttttttttttttttttttttttttttttttttttttt<<11qq77ww77..7755qq1111>>tttttttttttttttttttttttttttttttttttttttt",
"tttttttttttttttttttttttttttttttttttttttttttttttttttt>>>>>>>><<1166qq7777@@......oo331111>>>>>>tttttttttttttttttttttttttttttttttt",
"tttttttttttttttttttttttttttttttttttttttttttttttttttt>>>>>>>><<1166qq7777@@......oo331111>>>>>>tttttttttttttttttttttttttttttttttt",
"tttttttttttttttttttttttttttttttttttttttttttttt>>>>>>,,1111226655qq7777--==OO..--....55552211,,,,>>>>tttttttttttttttttttttttttttt",
"tttttttttttttttttttttttttttttttttttttttttttttt>>>>>>,,1111226655qq7777--==OO..--....55552211,,,,>>>>tttttttttttttttttttttttttttt",
"tttttttttttttttttttttttttttttttttttttttt>>>>,,,,11225555qq77qq777777rree--**OOXX....XXXX..oo..  tttttttttttttttttttttttttttttttt",
"tttttttttttttttttttttttttttttttttttttttt>>>>,,,,11225555qq77qq777777rree--**OOXX....XXXX..oo..  tttttttttttttttttttttttttttttttt",
"tttttttttttttttttttttttttttttttttttttttttttttt>>>>>>1111226666qqqqqq7777;;==**oo..==oooo++OO..$$..tttttttttttttttttttttttttttttt",
"tttttttttttttttttttttttttttttttttttttttttttttt>>>>>>1111226666qqqqqq7777;;==**oo..==oooo++OO..$$..tttttttttttttttttttttttttttttt",
"tttttttttttttttttttttttttttttttttttttttttttttttttttt>>>>>>>>22226677777799==**..XX$$XX    ....##..tttttttttttttttttttttttttttttt",
"tttttttttttttttttttttttttttttttttttttttttttttttttttt>>>>>>>>22226677777799==**..XX$$XX    ....##..tttttttttttttttttttttttttttttt",
"tttttttttttttttttttttttttttttttttttttttttttttttttttttttttttttt2255qqqqqq00..::**OOXX..oo%%..OOOO  tttttttttttttttttttttttttttttt",
"tttttttttttttttttttttttttttttttttttttttttttttttttttttttttttttt2255qqqqqq00..::**OOXX..oo%%..OOOO  tttttttttttttttttttttttttttttt",
"tttttttttttttttttttttttttttttttttttttttttttttttttttttttttttttt>>55qq5555..oo----++%%**......XXXXtttttttttttttttttttttttttttttttt",
"tttttttttttttttttttttttttttttttttttttttttttttttttttttttttttttt>>55qq5555..oo----++%%**......XXXXtttttttttttttttttttttttttttttttt",
"tttttttttttttttttttttttttttttttttttttttttttttttttttttttttttttt>>55551111@@oo--;;**--XX..........XXtttttttttttttttttttttttttttttt",
"tttttttttttttttttttttttttttttttttttttttttttttttttttttttttttttt>>55551111@@oo--;;**--XX..........XXtttttttttttttttttttttttttttttt",
"tttttttttttttttttttttttttttttttttttttttttttttttttttttttttttt>>1122>>tt++++::------XX....    ......tttttttttttttttttttttttttttttt",
"tttttttttttttttttttttttttttttttttttttttttttttttttttttttttttt>>1122>>tt++++::------XX....    ......tttttttttttttttttttttttttttttt",
"tttttttttttttttttttttttttttttttttttttttttttttttttttttttttttt>>>>tttt++@@++oo;;--;;........XX......tttttttttttttttttttttttttttttt",
"tttttttttttttttttttttttttttttttttttttttttttttttttttttttttttt>>>>tttt++@@++oo;;--;;........XX......tttttttttttttttttttttttttttttt",
"ttttttttttttttttttttttttttttttttttttttttttttttttttttttttttttttttttXXoo++$$oo--;;........  XX........tttttttttttttttttttttttttttt",
"ttttttttttttttttttttttttttttttttttttttttttttttttttttttttttttttttttXXoo++$$oo--;;........  XX........tttttttttttttttttttttttttttt",
"tttttttttttttttttttttttttttttttttttttttttttttttttttttttttttttttttt##++..$$++--;;XXXX..........==..##tttttttttttttttttttttttttttt",
"tttttttttttttttttttttttttttttttttttttttttttttttttttttttttttttttttt##++..$$++--;;XXXX..........==..##tttttttttttttttttttttttttttt",
"tttttttttttttttttttttttttttttttttttttttttttttttttttttttttttttttttttt..**%%##**;;;;ooXXXXXXXXooXX..@@..tttttttttttttttttttttttttt",
"tttttttttttttttttttttttttttttttttttttttttttttttttttttttttttttttttttt..**%%##**;;;;ooXXXXXXXXooXX..@@..tttttttttttttttttttttttttt",
"tttttttttttttttttttttttttttttttttttttttttttttttttttttttttttttttttt    $$%%%%##::;;##XXXXXXXXXX....@@XXtttttttttttttttttttttttttt",
"tttttttttttttttttttttttttttttttttttttttttttttttttttttttttttttttttt    $$%%%%##::;;##XXXXXXXXXX....@@XXtttttttttttttttttttttttttt",
"tttttttttttttttttttttttttttttttttttttttttttttttttttttttttttttt..    ..==****$$;;88XX..............@@@@tttttttttttttttttttttttttt",
"tttttttttttttttttttttttttttttttttttttttttttttttttttttttttttttt..    ..==****$$;;88XX..............@@@@tttttttttttttttttttttttttt",
"tttttttttttttttttttttttttttttttttttttttttttttttttttttttt==@@oo....  ....%%**%%--;;............%%..##@@..tttttttttttttttttttttttt",
"tttttttttttttttttttttttttttttttttttttttttttttttttttttttt==@@oo....  ....%%**%%--;;............%%..##@@..tttttttttttttttttttttttt",
"tttttttttttttttttttttttttttttttttttttttttttttttttttttttt%%##oo......  ......$$;;::XX          ++..##@@##tttttttttttttttttttttttt",
"tttttttttttttttttttttttttttttttttttttttttttttttttttttttt%%##oo......  ......$$;;::XX          ++..##@@##tttttttttttttttttttttttt",
"tttttttttttttttttttttttttttttttttttttttttttttttttttt--%%$$##OOXX......  ####++**88....XX......++@@@@@@@@..tttttttttttttttttttttt",
"tttttttttttttttttttttttttttttttttttttttttttttttttttt--%%$$##OOXX......  ####++**88....XX......++@@@@@@@@..tttttttttttttttttttttt",
"tttttttttttttttttttttttttttttttttttttttttttttttttt;;==%%##OOooXX......%%$$$$++++##::$$######$$$$##$$$$##..tttttttttttttttttttttt",
"tttttttttttttttttttttttttttttttttttttttttttttttttt;;==%%##OOooXX......%%$$$$++++##::$$######$$$$##$$$$##..tttttttttttttttttttttt",
"tttttttttttttttttttttttttttttttttttttttttttttttttt==**%%##ooXX......XX....oo..  ..::          ..    ..##@@tttttttttttttttttttttt",
"tttttttttttttttttttttttttttttttttttttttttttttttttt==**%%##ooXX......XX....oo..  ..::          ..    ..##@@tttttttttttttttttttttt",
"tttttttttttttttttttttttttttttttttttttttttttttttt--==%%$$OOOOXXXX......XXXXtt..OO==;;......XX....XXOO%%@@@@..tttttttttttttttttttt",
"tttttttttttttttttttttttttttttttttttttttttttttttt--==%%$$OOOOXXXX......XXXXtt..OO==;;......XX....XXOO%%@@@@..tttttttttttttttttttt",
"tttttttttttttttttttttttttttttttttttttttttttttttt--**$$++OOXXXXXX............**OO..;;............XXXXOO@@@@@@tttttttttttttttttttt",
"tttttttttttttttttttttttttttttttttttttttttttttttt--**$$++OOXXXXXX............**OO..;;............XXXXOO@@@@@@tttttttttttttttttttt",
"tttttttttttttttttttttttttttttttttttttttttttttt--****&&++OOooXXXX..........tt--%%XX--  XXXX....XXXXXXoo@@##@@..tttttttttttttttttt",
"tttttttttttttttttttttttttttttttttttttttttttttt--****&&++OOooXXXX..........tt--%%XX--  XXXX....XXXXXXoo@@##@@..tttttttttttttttttt",
"tttttttttttttttttttttttttttttttttttttttttttttt&&%%##@@@@OOXXXX..XX......XXtt;;==;;--::XX....XX....XXXXOO@@##..tttttttttttttttttt",
"tttttttttttttttttttttttttttttttttttttttttttttt&&%%##@@@@OOXXXX..XX......XXtt;;==;;--::XX....XX....XXXXOO@@##..tttttttttttttttttt",
"tttttttttttttttttttttttttttttttttttttttttttt%%%%$$##++OO@@XX....XX......XXtt--oo##XX==..XXXX..XX....XXXXOO@@##..tttttttttttttttt",
"tttttttttttttttttttttttttttttttttttttttttttt%%%%$$##++OO@@XX....XX......XXtt--oo##XX==..XXXX..XX....XXXXOO@@##..tttttttttttttttt"
};
