/* XPM */
static char *d73f5798bdd04f688c7e6dd4272e6083P0T43uw2dLgb3vgH[] = {
/* columns rows colors chars-per-pixel */
"64 64 245 2 ",
"   c #181B16",
".  c #13130D",
"X  c #211E14",
"o  c #1D211B",
"O  c #1F2213",
"+  c #24241D",
"@  c #28281C",
"#  c #34321D",
"$  c #1D2425",
"%  c #232523",
"&  c #2B2C24",
"*  c #252A2C",
"=  c #2C2D2C",
"-  c #262926",
";  c #322E26",
":  c #2E312C",
">  c #333226",
",  c #34332C",
"<  c #39352B",
"1  c #36382C",
"2  c #3B392C",
"3  c #3C3926",
"4  c #2E3436",
"5  c #333533",
"6  c #363934",
"7  c #3C3B34",
"8  c #343B3C",
"9  c #3B3E3C",
"0  c #343638",
"q  c #2B2D31",
"w  c #191E20",
"e  c #423B2E",
"r  c #423E35",
"t  c #433F3C",
"y  c #3D413E",
"u  c #3D4136",
"i  c #444335",
"p  c #4A4435",
"a  c #44433B",
"s  c #4A453C",
"d  c #4C4A3C",
"f  c #494938",
"g  c #554D3C",
"h  c #5B543D",
"j  c #5A553C",
"k  c #43422F",
"l  c #635A3D",
"z  c #65603E",
"x  c #3A3E41",
"c  c #413F40",
"v  c #3E4242",
"b  c #3B4249",
"n  c #434543",
"m  c #454A44",
"M  c #4B4C44",
"N  c #43464A",
"B  c #454A4B",
"V  c #4A4D4A",
"C  c #484542",
"Z  c #524D41",
"A  c #534E4C",
"S  c #4E5145",
"D  c #4E514B",
"F  c #545244",
"G  c #5B5443",
"H  c #5C5944",
"J  c #53534B",
"K  c #5B554B",
"L  c #5C5A4B",
"P  c #57594A",
"I  c #494C54",
"U  c #444B53",
"Y  c #4E5253",
"T  c #4C5457",
"R  c #535552",
"E  c #565A54",
"W  c #5C5C53",
"Q  c #545A5B",
"!  c #5B5D5B",
"~  c #585653",
"^  c #625545",
"/  c #635C44",
"(  c #6B5D44",
")  c #645C4C",
"_  c #6A5E4B",
"`  c #65574C",
"'  c #625E52",
"]  c #685E55",
"[  c #5E625C",
"{  c #5F6154",
"}  c #65614D",
"|  c #6B644C",
" . c #6A6247",
".. c #73644B",
"X. c #74684D",
"o. c #646353",
"O. c #6B6453",
"+. c #6C6954",
"@. c #64645C",
"#. c #6A665B",
"$. c #6C6B5C",
"%. c #67695A",
"&. c #736653",
"*. c #736A55",
"=. c #726C5C",
"-. c #7A6D57",
";. c #75715C",
":. c #7B735C",
">. c #7A7257",
",. c #585D64",
"<. c #636563",
"1. c #666962",
"2. c #6D6C62",
"3. c #686A6A",
"4. c #736E62",
"5. c #776F64",
"6. c #757264",
"7. c #7A7464",
"8. c #7D7965",
"9. c #75736A",
"0. c #7B766A",
"q. c #7C7A6C",
"w. c #6E7273",
"e. c #7D7B72",
"r. c #767675",
"t. c #6F706B",
"y. c #5E6568",
"u. c #847B5C",
"i. c #827A65",
"p. c #837C6B",
"a. c #877B66",
"s. c #847E71",
"d. c #817E7C",
"f. c #7F8175",
"g. c #85826C",
"h. c #8B836C",
"j. c #898366",
"k. c #94896A",
"l. c #848273",
"z. c #8B8474",
"x. c #8D8975",
"c. c #84847A",
"v. c #8B8679",
"b. c #8C8A7B",
"n. c #878A7D",
"m. c #928B75",
"M. c #938C7B",
"N. c #958976",
"B. c #9A9375",
"V. c #95917C",
"C. c #9B937D",
"Z. c #9D987B",
"A. c #A69A7E",
"S. c #AF9E73",
"D. c #9A906B",
"F. c #7F7F83",
"G. c #8C8C83",
"H. c #868782",
"J. c #938E83",
"K. c #959383",
"L. c #9B9583",
"P. c #9D9985",
"I. c #93948A",
"U. c #9C9A8C",
"Y. c #979787",
"T. c #9A9A92",
"R. c #8D9186",
"E. c #A39C85",
"W. c #A99D84",
"Q. c #A39D8B",
"!. c #A59A87",
"~. c #A29E92",
"^. c #A59E97",
"/. c #A5A18D",
"(. c #ABA38C",
"). c #ABA487",
"_. c #B3AA8E",
"`. c #B5A989",
"'. c #A5A393",
"]. c #AAA592",
"[. c #ACA994",
"{. c #A3A49D",
"}. c #A9A699",
"|. c #ACAB9B",
" X c #A6A894",
".X c #B3AB94",
"XX c #B3AD9A",
"oX c #B5AB97",
"OX c #B5B19C",
"+X c #BBB49C",
"@X c #BBB496",
"#X c #AEB19D",
"$X c #ABAAA5",
"%X c #B2AEA6",
"&X c #B5B3A3",
"*X c #BBB5A2",
"=X c #BDB9A4",
"-X c #B3B4AD",
";X c #BCB9A9",
":X c #B9B9B5",
">X c #B0AFAD",
",X c #C3B99C",
"<X c #C3BCA3",
"1X c #CABEA4",
"2X c #C3BDAA",
"3X c #C4B9A5",
"4X c #C2BFB6",
"5X c #BEC0B6",
"6X c #D1C59A",
"7X c #E3D09A",
"8X c #CAC2A4",
"9X c #C5C2AC",
"0X c #CBC4AC",
"qX c #CAC4AB",
"wX c #D5CAA9",
"eX c #CBC5B2",
"rX c #C4C2BB",
"tX c #C9C6B8",
"yX c #D3CCB3",
"uX c #D4CDBB",
"iX c #D9CEBA",
"pX c #DBD3B5",
"aX c #DBD4BB",
"sX c #D7D3BA",
"dX c #DBD3AF",
"fX c #E5DBBA",
"gX c #E0D2A6",
"hX c #CACBC3",
"jX c #DAD5C4",
"kX c #D8D6C7",
"lX c #DBDCD4",
"zX c #CFD0C5",
"xX c #E3DCC8",
"cX c #E1DED3",
"vX c #DFE2D6",
"bX c #E9E3C9",
"nX c #E9E7D5",
"mX c #F3EED5",
"MX c #F1ECD9",
"NX c #F6F3DB",
"BX c #F1E7CA",
"VX c #FCFBEB",
"CX c #F7F4E6",
"ZX c #FDFDF2",
"AX c #F0EEE5",
/* pixels */
"m.Z.h.$.%.{ 1 u j.j. .l l ^ _ l u.p @ k.wXwX7X7X7X7X_.3XfXaX,Xa.X.+.+.f   1 a y M y m n n C x n x n m C V C M M M y o m o.;.>.m.",
"B.A.P.9.{ P $ O  .>. .F F K ] _ G @ ; u.A.`.1X7X7X6X6X1X,X1X1X+X*.} +.{ -   m M ~ n D m C n n t n C m M V V M S u @ w 8 D J S %.",
";.K.f.%.u $ * * & f p L F a u & $ % , u.D.k.S.S.S.`.`.W.).W.W.(./.8.+.{ n   n @.9.<.@.V n C a n E [ F S D D D 8 $ * 4 b U Q E [ ",
"uXtX9XhX-XT.y.T 8 : - = : : 8 v 0 N Y =.a.j.B.k.j.A.k.k.j.j.i.Z.Z.g.+.L J % , 3.t.@.W K m m n D E P J D P m 9 q 4 v b w.:XzXzXkX",
"CXNXNXkXuXzXvXR.T T U U Q y.q.e.9.r.zXnXnXjX=.h # 3 l | X.>.j.Z.j.g.7./ L C - ! 2.] W A J D M D Z K ~ W J D 1.F.$X:XvXZXZXZXVXVX",
"&X|./. X&X-XvXR.y.3.3.<.1.2.$.c.Y.eX2X=XjXxXOX, + # > > 2 p ) -.:.*. .| ] R 5 n r.<.2.! S a u a i G.>X5XhXvXAXCXCXVXVXVXZXCXnXuX",
"2.2.2.9.#X-XhXn.1.[ <.1.[ [ $.9.c.C.x.K.x.P.uXK.: n W $.#.#.%.:.;.Z.,XsXzXuX}.G.K.c.d.3.P V a , , AXZXZXVXCXCXnXkXeX,X/.M.x.E.m.",
"0.q.6.o.Y.zXtXR.1.{ %.1.[ @.q.0.q.n.I.R.f.q.M.qX9 V =.q.p.=.7.0.7.a.D.).W.XXP.].;X%X:XrX4XzXzX4.2 MXMXbX2X[.P.M.8.8.7.M.K.P.M.M.",
"9.2.@.$.V.tXrXn.1.%.@.1.W @.9.4.6.e.G.n.c.q.x.W.v P 9.g.p.=.;.;.;.:.a.>.h.>.8.x.l.I.T.>X5XnXAXXXk 9XV.z.i.8.;.7.m.P.x.V.g.x.q.0.",
"q.q.f.g.8.l.n.6.$.{ %.@.@.4.p.8.8.7.0.;.*.7.:.k.D J $.q.7.+.;.g.@XA.i.;.8.i.oX'.e.I.{.:XzXcXMXeXh q.l.4.4.c.0.q.P.P.V.f.9.8.6.%.",
"9.0.6.8.7.z.$.o.{ } %.#.o.=.g.h.h.x.h.p.i.h.k.a.E W p.=.6.8.f.j.B.Z.:.>.>.B.qX~.R.{.lXlXlX;XzXiX;.!.'.6.$.9.q.2.l.b.g.8.6.%.$.$.",
"#.9.9.0.2.0.c.0.%.%.$.@.$.0.*.+.:.O.*.&...-.u.k.9.[.dXwX@XyX Xg.h.h.j.8.x.!.0XyX=XT.T.-X4X4X%X+X_ ).;.$.$.$.$.$.f.g.f.l.g.g.$.+.",
"$.2.6.l.c.q.n.8.$.$.;.$.%.g.8.;.+.;.i.a.h.u.u.k.qXaX_.A.wXfXsX9XeXwX+XV.+XqX+X[. Xn.n.V.f.e.0.M.G | =.$.1.$.;.0.6.z.g.f.} { L o.",
"$.%.$.2.$.o.9.q.6.$.o.$.$.6.6.L ) o.O.*.h.u.>.j.).wXNXmXaX_.yXbXmXmXBX+XoX<XC.V.f.f.n.6.$.2.$.>.d 3 $.1.$.$.6.g.+.;.8.9.P o.' o.",
"@.#.%.$.$.$.$.9.9.6.$.o.+.o.} P L ) } ` | -.*.g.>.,XdXBXaXP.yXbXyXaXBXwX_..Xm.V.Z.Y.;.K.l.c.K.P.| + $.q.q.6.8.z.o.) o.L P $.@.2.",
"#.4.%.2.2.$.2.;.$.0.g.%.} O.$.o.) ' ' %.+.+.8.;.f j.wXBXbXzXjXbXaXsX,XdX@X`.h.:.l.x.8.x.x.6.6.Z.m.. o.t.%.#.#.=.@.W P W $.$.$.;.",
"4.7.=.9.6.$.9.q.2.s.s.5.K 4.6.O.o.K L ' %.o.=.o.2 g.wXbXmXCXNXnXBXbXaXfX`.).>.O.5.=.6.*.7.a.i.A.6.O H o.o.%.$.;.%.K P o.8.$.7.6.",
"7.6.;.q.6.8.e.e.s.d.r.5.$.=.7.2.=.' #.] ` L L +.@ } +XfXnXBXNXmXNXmXBX1XB.B.7.O.e.x.Q.C.!.^.a.a.f + f H P } o.P F p a Z J P o.O.",
"6.6.8.8.6.8.q.8.5.5.5.5.9.4.6.$.6.$.#._ ` G G e + Z M..X8XbXxXbXmXsX<X.X_.>.x.p.l.m.(.(.(.W.a.( k   > k k p 3 > > 3 7 u m C S ~ ",
"M d { ~ P ~ 1.W A ~ ~ ! @.' ~ F F K J s 9 , ; 5 : 6 ^ *.E.sXaXfXyXbXwXwX+XB.(..X[.!.O.^ l l ( ^ g   + : , , : , 7 y a 9 c B J J ",
":X>X>X$X-X%X-X>X$X$X>X:X:X4XrXuX4X4XhX4X:X>X>X>XT.A G X.Z..XpXpX8XdXaXfXpX<X2X<X=X(.7.) ` ^ ( ^ g o + * = 4 4 y v v n y n F K 9.",
"}.AXVXVXcXjXuXuXjXnXCXAX4X3X3X1X3XQ.U.z.5.&.M.jXzX^.< p G G a.,X_.,X8X@XW.k.z.h.8._ L G ^ Z G g 1   % u 9 y m m m a n m J L O.g.",
"J.jXeXQ.P.!.p.l.d.J.!.^.a.a.J.J.N.=.' #.W Z K s.E.XX+ + & , a O.*.:.j.u.u.*.O.| _ O.` s t 5 5 , o   % 7 S W L F S F F G ) / } 7.",
"M.z.z.s.p.7.s.v.p.a.5.d.=.] ] a.p.` W ` ) ] K ` 7.| r 4 V I Y n u a d d M a a 9 7 5 8 0 I I N N 5 . + f G H H H F j j /  .l  .i.",
"M.a.p.p.p.5.J.^.N.5.5.s.5.&.5.i.4.o.` K ^ ` g ` ] ` C t 2.t.t.Q C R R ,.I V N V N b c N ,.3.w.r.y . + p j H / z l j l l z z  .>.",
"z.a.i.q.N.s.N.J.v.i.s.s.&.5.a.5.5.&.) ] u.` g ` ` ] C ` v.v.v.c.I.;XtXrX:XhX-X-XH.<.F.{.zXlXxX^.B o + f j H  . .l j j  .l l  .i.",
"p.7.7.a.L.^.i.5.s.d.5.s.&.u.u.( ^ &._ ] a.` ( ` ` ` C Z M.M.s.M.i.(.xXmXbX2X*X2XnXAXCXVXcXcXCXhXE - - f P  . .H j j F H H / +.g.",
"p.0.5.p.p.a.] =.a.i.2.s.] u.` ..( l ( ( ` u.` ` ` ` t e M.v.z.W.N.*.k.C.3X+X(.L.[.oX*XCXnXcXhXcX#X: & f P j H H j j j j H / +.p.",
"5.5.p.d.s.i.5.5.5.5.4.M.s.a.....X.( u.^ ( l ` ` ' ] C t D W =.i.>. .-.&.&.oXiX!.+.*.0.p.kX9XI.'.b.o + i F H H H j j H H } H f.>.",
"].p.i.s.s.i.=.5.5.5.5.s.L.a.u.a.!...l l u.^ ^ ` ^ ] c.<.B t t t s s g p Z ' h.C.:.O.O.O.v.Q.*.Z 2 : & a F H F P P P P P P >.).).",
"aXz.7.p.s.5.4.5.5.&.5.d.M.a.a.C.(.a.u.u.u.u.g g ` -.[.M.$XtXtX^.H.d.3.R I I ~ $.#.O.+.) / G G d a 8 + p F F P F P S d P ;.,X6X8X",
"0XC.i.p.s.i.5.5.i.4.5.s.s.s.s.a.a.N.u...a.u.g ^ ` =.g j.aXaXyXxXnXyXtX%Xe.t.3.e.r.9.9.O.O.O.%.P I 8 + < F F F S P S P P.8X8X8X6X",
"8.4.7.s.7.s.p.0.a.#.0.v.x.8._ G _ !.A.W.N.a.) H ` ] r e 7.-.i.s.u.&.a.C.(.V.v.{.T.F.F.3.W K ~ A T I % X u P P J { 9.@XsXdXfXpX@X",
"p.6.=.0.a.=.=.-.l.O.0.K.p.q.;._ i.u.s.s.i.i.) G ` ` ^ ; 5.5.` _ _ _ #.2.6.b.9.q.$X>XH.w.<.! Q T Q R q . 1 d o.&XtXkXiX8XyXdXdX@X",
"7.l.q.7.7.-.] | ;.O.O.6.s.z.p.&.&.` ` _ &._ _ ) ) ) ] r v.a.=.&.` ] &.p.p.v.g.q.0.n.c.d.w.] Q ' ! { 9 w o : k P.eXeXxX3XdXA.Z.f.",
"%.7.6.0.p.p.i.=._ O.4.s.e.s.M.] ^ g G G ^ ` _ G ) ] i.7.M.J.C.N.-.-.p.L.M.V.l.4.4.4.4.9.t.<.<.<.@.' 9 * w o + < k G i.N.>.z  .j ",
"q.O.%.=.7.a.7.5.-.=.4.0.e.s.K.i.G g g ` ^ &.] ^ ' &.` p p.L.C.!.W.(.,X^.+X*XQ.!.!.p.2.#.2.4.2.2.] K x 8 8 q 4 * % 5 G H H d 2 p ",
"q.' =.=.5.s.i.i.7.O.K 9.9.z.!.s.` ^ g _ ` &.] ^ ] s.O.O.N.;.7.h.(.]._.!.].3XQ.XX~.M.4.] #.=.=.&.] V R T w.f.I.B c c n n a 5 5 @.",
"0.0.-.4.=.5.5.7.7.5.' e.H.G.'.K.a.h ` ( =.` ' ^ i.h.F j &.=.p.a.C.!.(.W.XXQ.].XX*XJ.5.] #.&.O.' ~ {.cXbXnXkX-X[ R T D B m m m D ",
"o.O.L G r G i.7.i.] 1.s.v.s.g.;.] ^ ( &.&.a.] ` i.g O + G 5.p.s.L.!.].W.oX+XXXoXM.J.5.2.] &.X.s e.nXlXjXrX#X-XG.@.! Y V V D m m ",
"p 2 r r ; < ` L K d K K K C m d Z r d g G K r e s &     : 5.p.s.L.L.a.a.E.oXJ.J.v.L.i.] #.O.O.; q.;X;XyX&X|.|.I.3.E Y Y S S m v ",
"a 9 t q - % % % % * * q v N b b x 9 8 0 0 0 4 4 8 b R x q t 5.P.!.C.=.&.M.XX!.L.!.z.5.` W J Z + M U. X XK.U.I.Y.n.#.E Y S B D D ",
"M c B d.d.~ Q ~ T B Y Y <.3.3.y.y.,.,.Q T I I w.{.-XkX<.N 9 J M.p.=.K Z g.H { L K e 7 , n K #.& a v.'.%Xb.U.T.K.U.c.P E D D V V ",
"M J &X].L.M.!.;X;X&X&XXX}.U.$X~.~.~.T.$X$X$XR.{..X|.{.t.<.<.@.W W Z A N n m m B 9 = n I c.z.6.7 s e.Y.~.K.r.e.M.M.~.W ~ E V D S ",
"R &X].L.L.L.z.!.&X;X2X0X3X+X*XeX0X*X}. X:XtX;XP.P.V.n.2.@.@.[ ! ' ' [ [ ! ,.[ E t.S f.f.6.} g 7 r 0.M.P.n.e.9.Y.x.x.f.o.E S D D ",
"P.XXoX].^.!.].XXQ.E.E..XOX=XoX[./.;XtX;XOXXXXX+X[.OX|.@.[ [ Q E ! W %.e.t.9.%.{ e.6.d k u d M ! 6 < K 4.0.9.t.4.6.8.g.L P D S S ",
"=X2X;XtXyX3X3XQ.).E.(.(.oXOX[.OXOX+XXX;X;X[.*X0XqX9X9X1.! Q [ W #.0.K.|.}.U.f.n.G.G.9 - B J $.rX~ , = & u d { 6.o.$.8.L F D S 1.",
"(.9XkXkXyXjXW.C.(.(.E.OX<X<X(.L.K.P./.XXXX;X9X9X*X;X9X$XI.G.T.K.U.M.Z.E.M.l.K.l.f./.n.5 D 2.iXNXjXl.1.J y 7 : 7 u y d f a i S n.",
"[..X*X;X0XqX/.h.*.x.g.m.E.(.}.E.P.V.V.U.2X|.OX;X*X|.}.XX}.}.^./.B.m.g.P.K.m.V.b.K.(. Xy W <XBXwXaXbX`.!.~.^.J.r.e.G.7 + # , %.V.",
"|.*X+X@X<XyXqXL.M.P.!.'.x.P. X[. X#XY.f.b.b.v. XQ.Q.C.}.&XL.M.K./. X)./.l.Y.Y.P.P.OX(.F 3XxXW.&.X.a.z.a.a.s.5.] #.v.~ & , C V./.",
"/.+XOXOX(.oXxXjX2X].(.P./. X*XOX#X#X XK.q.9.l.l.x.P.XX&X|.~.Q.].[.=XOX+XV.x.[./.V.E.P.L 0XB.X.X. .a.(.i.v.M.M.s.7.0.{ 1 , %. X X",
";XeXeX.XW.E.L.iXMX9X].P. X/. X*XOX X X&X}.V.8.6.p.h.M.M.G. X'. XQ.Z.P.m./.OXOX+X).%.2 eXB.&.O.|  . .1X,X!.M.oXL.z.v.+.1 2 l.;X#X",
"=X2XjX3X_.!.M.L.*XOXOX;X[. XOX/.&XOX#X&X'. XV.x.L.x.x.M.K.}.|.v.V.6.g.g.)././.[.7.@ C xX*.O.| / ( ( u.(.oXW..XN.h.7.G @ 1 g.|.9X",
"Q.[.W.+X1X3X3X2X2X:.V.(.9XeXOX9X9X+X9X+X9XOX[.V.Q.].m.M.'.Q.n.L.9.p.6.;.f.j.;.L : - K B.*.8.} / / _ _ ( a.&.G &.;.&.3   3 i.P.K.",
"#.s.A._._.1X2X=X[.:.E.P././.+X#XQ.(._.[.E.*X0XeX+X.XB.x.V.Q.K.l.x.z.7.=.8.8.+.) K n i | *.:.*.-.*./ | _ _ G G Z =.G O   7 o.*.K ",
"].C.m.E.E.a.x.8.W #.q.g.p.8.7.{ @.O.$.0.p.V.P.L.M.p.O.O.7._ =.| H ;.+.#.o.} d *.h.0.) F K g s s a s t p g Z G W s ; .   u o.O. X",
"/.E.8.O.#.Z L i 2 t s s ` #.] K @.' A W #.=.G s a i 1 2 p 7 a k p f > & @ + , f :.j.i.g.l.4.0.3.E 7 6 1 : 1 u P =     w u ;.z.P.",
"h.=.K < ; , r i g N.M.x.^.2XaXkXjXjXjXuX3X}.^.C 7 9 7 6 9 6 , 5 y u v u y y t a F :.:.;.8.$.2.r.[ B M y 6 : : 4 q q * o S g.m.E.",
"L k > , a s u d &.....A.A.A.W.N.u.l./.P.v.s.v.n.3.$.[ t.K o + , C M S S m m V V M B B M a n y y u v m y v b b v v x v 8 J 6.8.$.",
"} P f L ) F 3 f ( / / / ^ / _ ] o.[ H.f.G.G.v.V.e.s.e.q.> > > @ 2 M V V D D M M C m n a v v y x y b v v B m D v c n a v m f } } ",
"u.| L o.%.P u 3 _ _ ` ` _ ` 4.0.' 2 J S #.P F G o.$.9.a $ 9 M L K s M V M V D M M m v m y v v v v 8 v v D v y v v b v S d H +.k.",
"B.j.8.} %.L > u o.' +.s.P.v.].P.=.r   = W D m u : 7 7 5 4 b D 2.q.p @ C M M D M M m m m v 9 v y y v v 9 v D v b D m b v S } ;.k.",
"k.B.x.{ o.{ 1 o.+X!.3X,X1X1X1X,X`.d   L P.V.A.:.! E b U ,.Q Q L $.a   . u S M M M m y y v y 9 9 v v v 9 v v v m V y v v d { f.k.",
"B.B.m.%.+.o.< X.1X0X1X,XwXwX`.`.,XG O g.dXgXfXwXA.6.[ %.e.<.1.@.H M 5   + M m M S y y y y v v v v v v v v v V m m v y y S { f.B."
};
